<svg xmlns="http://www.w3.org/2000/svg" xmlns:xlink="http://www.w3.org/1999/xlink" viewBox="0 0 33.09 32.62"><defs><style>.cls-1{fill:none;}.cls-2{clip-path:url(#clip-path);}.cls-3{clip-path:url(#clip-path-2);}.cls-4{fill:#ffb5a9;}</style><clipPath id="clip-path"><rect class="cls-1" x="-1427.98" y="265.4" width="1920" height="777.02"/></clipPath><clipPath id="clip-path-2"><rect class="cls-1" x="-1430.24" y="214.3" width="1924.53" height="1262.79"/></clipPath></defs><g id="Projects"><g class="cls-2"><g class="cls-3"><image id="gfmUDa" width="1567" height="1108" transform="translate(-1435.41 -134) scale(1.23)" xlink:href="../../../reference/Salekit-KenAttitude_Page_06.jpeg"/></g></g></g><g id="Head"><path class="cls-4" d="M23,4.68H19.94c-3.45,0-5.69,2.29-5.69,5.83V13.2H11.16a.48.48,0,0,0-.48.48v3.9a.49.49,0,0,0,.48.48h3.09v9.83a.48.48,0,0,0,.49.48h4a.47.47,0,0,0,.48-.48V18.06h3.61a.49.49,0,0,0,.49-.48v-3.9a.48.48,0,0,0-.14-.34.49.49,0,0,0-.34-.14H19.25V10.92c0-1.1.26-1.65,1.69-1.65H23a.48.48,0,0,0,.48-.49V5.17A.48.48,0,0,0,23,4.68Zm0,0"/></g></svg>