<svg xmlns="http://www.w3.org/2000/svg" xmlns:xlink="http://www.w3.org/1999/xlink" viewBox="0 0 29.36 31.22"><defs><style>.cls-1{fill:none;}.cls-2{clip-path:url(#clip-path);}.cls-3{clip-path:url(#clip-path-2);}.cls-4{fill:#919397;}</style><clipPath id="clip-path"><rect class="cls-1" x="-1284.45" y="264.93" width="1920" height="777.02"/></clipPath><clipPath id="clip-path-2"><rect class="cls-1" x="-1286.71" y="213.83" width="1924.53" height="1262.79"/></clipPath></defs><g id="Projects"><g class="cls-2"><g class="cls-3"><image id="gfmUDa" width="1567" height="1108" transform="translate(-1291.88 -134.47) scale(1.23)" xlink:href="../../../reference/Salekit-KenAttitude_Page_06.jpeg"/></g></g></g><g id="Head"><path class="cls-4" d="M20.45,4.22H17.37c-3.45,0-5.68,2.29-5.68,5.83v2.69H8.6a.49.49,0,0,0-.48.49v3.89a.48.48,0,0,0,.48.48h3.09v9.83a.49.49,0,0,0,.49.49h4a.49.49,0,0,0,.49-.49V17.59H20.3a.47.47,0,0,0,.48-.48V13.22a.53.53,0,0,0-.15-.35.48.48,0,0,0-.34-.14H16.69V10.45c0-1.09.26-1.65,1.69-1.65h2.07a.49.49,0,0,0,.48-.48V4.7a.48.48,0,0,0-.48-.48Zm0,0"/></g></svg>