<svg xmlns="http://www.w3.org/2000/svg" xmlns:xlink="http://www.w3.org/1999/xlink" viewBox="0 0 29.36 31.69"><defs><style>.cls-1{fill:none;}.cls-2{clip-path:url(#clip-path);}.cls-3{clip-path:url(#clip-path-2);}.cls-4{fill:#ffb5a9;}</style><clipPath id="clip-path"><rect class="cls-1" x="-1470.85" y="264.93" width="1920" height="777.02"/></clipPath><clipPath id="clip-path-2"><rect class="cls-1" x="-1473.12" y="213.83" width="1924.53" height="1262.79"/></clipPath></defs><g id="Projects"><g class="cls-2"><g class="cls-3"><image id="gfmUDa" width="1567" height="1108" transform="translate(-1478.28 -134.47) scale(1.23)" xlink:href="../../../reference/Salekit-KenAttitude_Page_06.jpeg"/></g></g></g><g id="Head"><path class="cls-4" d="M20.13,4.89H9.88a6,6,0,0,0-6,6.05V21.18a6.06,6.06,0,0,0,6,6.05H20.13a6.06,6.06,0,0,0,6-6.05V10.94a6,6,0,0,0-6-6Zm4.73,16.29a4.74,4.74,0,0,1-4.73,4.74H9.88a4.74,4.74,0,0,1-4.73-4.74V10.94A4.74,4.74,0,0,1,9.88,6.2H20.13a4.74,4.74,0,0,1,4.73,4.74Zm0,0"/><path class="cls-4" d="M15,10a6.11,6.11,0,1,0,6.11,6.11A6.11,6.11,0,0,0,15,10Zm0,10.91a4.8,4.8,0,1,1,4.8-4.8,4.81,4.81,0,0,1-4.8,4.8Zm0,0"/><path class="cls-4" d="M21.26,7.78a1.81,1.81,0,1,0,1.8,1.81,1.81,1.81,0,0,0-1.8-1.81Zm0,2.3a.49.49,0,0,1-.5-.49.5.5,0,1,1,1,0,.49.49,0,0,1-.49.49Zm0,0"/></g></svg>