<svg xmlns="http://www.w3.org/2000/svg" xmlns:xlink="http://www.w3.org/1999/xlink" viewBox="0 0 32.16 31.69"><defs><style>.cls-1{fill:none;}.cls-2{clip-path:url(#clip-path);}.cls-3{clip-path:url(#clip-path-2);}.cls-4{fill:#919397;}</style><clipPath id="clip-path"><rect class="cls-1" x="-1322.66" y="264.47" width="1920" height="777.02"/></clipPath><clipPath id="clip-path-2"><rect class="cls-1" x="-1324.92" y="213.37" width="1924.53" height="1262.79"/></clipPath></defs><g id="Projects"><g class="cls-2"><g class="cls-3"><image id="gfmUDa" width="1567" height="1108" transform="translate(-1330.09 -134.94) scale(1.23)" xlink:href="../../../reference/Salekit-KenAttitude_Page_06.jpeg"/></g></g></g><g id="Head"><path class="cls-4" d="M22.22,4.43H12a6.06,6.06,0,0,0-6.05,6V20.71A6.06,6.06,0,0,0,12,26.76H22.22a6.05,6.05,0,0,0,6.05-6.05V10.47a6,6,0,0,0-6.05-6ZM27,20.71a4.74,4.74,0,0,1-4.74,4.74H12a4.74,4.74,0,0,1-4.74-4.74V10.47A4.74,4.74,0,0,1,12,5.74H22.22A4.74,4.74,0,0,1,27,10.47Zm0,0"/><path class="cls-4" d="M17.1,9.49a6.11,6.11,0,1,0,6.11,6.1,6.11,6.11,0,0,0-6.11-6.1Zm0,10.9a4.8,4.8,0,1,1,4.8-4.8,4.81,4.81,0,0,1-4.8,4.8Zm0,0"/><path class="cls-4" d="M23.35,7.32a1.81,1.81,0,1,0,1.81,1.8,1.81,1.81,0,0,0-1.81-1.8Zm0,2.3a.5.5,0,1,1,.5-.5.49.49,0,0,1-.5.5Zm0,0"/></g></svg>