<svg id="Layer_1" data-name="Layer 1" xmlns="http://www.w3.org/2000/svg" viewBox="0 0 163 147"><defs><style>.cls-1{fill:#dc8983;}</style></defs><path class="cls-1" d="M142,62.26C140.59,37.63,115,18,83.7,18,51.47,18,25.34,38.78,25.34,64.42c0,23.57,22.08,43,50.68,46A3.17,3.17,0,0,1,78.83,114l-1.22,11a3.18,3.18,0,0,0,4.55,3.21c24.17-11.66,38.62-23.66,47.24-34.05,1.57-1.89,6.69-9.06,7.74-10.95a39.21,39.21,0,0,0,4.46-12.79,28.59,28.59,0,0,0,.46-3.53A42,42,0,0,0,142,62.26ZM60.57,79.8H48.63a3,3,0,0,1-3-3V54.27a3,3,0,0,1,6,0V73.83h9a3,3,0,1,1,0,6Zm11.79-2.34A2.33,2.33,0,0,1,70,79.8H68.72a2.34,2.34,0,0,1-2.33-2.34V53.62a2.34,2.34,0,0,1,2.33-2.34H70a2.33,2.33,0,0,1,2.33,2.34Zm27.76-.77a3.1,3.1,0,0,1-3,3.11,3,3,0,0,1-2-.82c-.18-.17-12.28-15.86-12.28-15.86V76.81a3,3,0,1,1-6,0V54.39a3.06,3.06,0,0,1,2.87-3.1,3,3,0,0,1,2.34,1c.18.21,12.1,15.76,12.1,15.76V54.27a3,3,0,0,1,6,0Zm19.41-14.14a3,3,0,0,1,0,6h-9v5.3h9a3,3,0,0,1,0,6H107.59a3,3,0,0,1-3-3V54.27a3,3,0,0,1,3-3h11.94a3,3,0,1,1,0,6h-9v5.3Z"/></svg>