<svg xmlns="http://www.w3.org/2000/svg" xmlns:xlink="http://www.w3.org/1999/xlink" viewBox="0 0 32.62 31.22"><defs><style>.cls-1{fill:none;}.cls-2{clip-path:url(#clip-path);}.cls-3{clip-path:url(#clip-path-2);}.cls-4{fill:#919397;}</style><clipPath id="clip-path"><rect class="cls-1" x="-1366" y="264.47" width="1920" height="777.02"/></clipPath><clipPath id="clip-path-2"><rect class="cls-1" x="-1368.26" y="213.37" width="1924.53" height="1262.79"/></clipPath></defs><g id="Projects"><g class="cls-2"><g class="cls-3"><image id="gfmUDa" width="1567" height="1108" transform="translate(-1373.43 -134.94) scale(1.23)" xlink:href="../../../reference/Salekit-KenAttitude_Page_06.jpeg"/></g></g></g><g id="Head"><path class="cls-4" d="M29.23,13.34c-.29-5.06-5.54-9.09-12-9.09-6.63,0-12,4.27-12,9.54,0,4.84,4.54,8.84,10.42,9.45a.65.65,0,0,1,.57.72L16,26.21a.65.65,0,0,0,.94.66c5-2.39,7.93-4.86,9.71-7C27,19.49,28,18,28.23,17.63A8,8,0,0,0,29.15,15a6.54,6.54,0,0,0,.1-.73A8.49,8.49,0,0,0,29.23,13.34ZM12.5,16.94H10.05a.61.61,0,0,1-.62-.61V11.7a.61.61,0,0,1,.62-.61.61.61,0,0,1,.61.61v4H12.5a.61.61,0,0,1,0,1.22Zm2.42-.48a.47.47,0,0,1-.47.48h-.27a.47.47,0,0,1-.48-.48V11.57a.47.47,0,0,1,.48-.48h.27a.47.47,0,0,1,.47.48Zm5.71-.15a.63.63,0,0,1-.62.63.58.58,0,0,1-.41-.16s-2.53-3.26-2.53-3.26v2.81a.61.61,0,0,1-.61.61.61.61,0,0,1-.62-.61V11.72a.63.63,0,0,1,.59-.63.61.61,0,0,1,.49.2l2.48,3.24V11.7a.62.62,0,0,1,1.23,0Zm4-2.91a.62.62,0,0,1,0,1.23H22.78v1.09h1.84a.61.61,0,1,1,0,1.22H22.16a.61.61,0,0,1-.61-.61V11.7a.61.61,0,0,1,.61-.61h2.46a.61.61,0,1,1,0,1.22H22.78V13.4Z"/></g></svg>