<svg xmlns="http://www.w3.org/2000/svg" xmlns:xlink="http://www.w3.org/1999/xlink" viewBox="0 0 33.55 32.16"><defs><style>.cls-1{fill:none;}.cls-2{clip-path:url(#clip-path);}.cls-3{clip-path:url(#clip-path-2);}.cls-4{fill:#ffb5a9;}</style><clipPath id="clip-path"><rect class="cls-1" x="-1512.33" y="265.4" width="1920" height="777.02"/></clipPath><clipPath id="clip-path-2"><rect class="cls-1" x="-1514.59" y="214.3" width="1924.53" height="1262.79"/></clipPath></defs><g id="Projects"><g class="cls-2"><g class="cls-3"><image id="gfmUDa" width="1567" height="1108" transform="translate(-1519.76 -134) scale(1.23)" xlink:href="../../../reference/Salekit-KenAttitude_Page_06.jpeg"/></g></g></g><g id="Head"><path class="cls-4" d="M29,14.27c-.29-5.06-5.54-9.09-12-9.09-6.62,0-12,4.27-12,9.54,0,4.84,4.54,8.84,10.41,9.45a.66.66,0,0,1,.58.72l-.25,2.26a.66.66,0,0,0,.94.66c5-2.4,7.93-4.86,9.7-7A25.83,25.83,0,0,0,28,18.56a7.93,7.93,0,0,0,.92-2.63,6.36,6.36,0,0,0,.09-.72A9.1,9.1,0,0,0,29,14.27ZM12.27,17.88H9.81a.62.62,0,0,1-.61-.62V12.63a.62.62,0,0,1,1.23,0v4h1.84a.61.61,0,0,1,.61.61A.61.61,0,0,1,12.27,17.88Zm2.42-.48a.48.48,0,0,1-.48.48h-.27a.49.49,0,0,1-.48-.48V12.5a.48.48,0,0,1,.48-.48h.27a.47.47,0,0,1,.48.48Zm5.71-.16a.64.64,0,0,1-.62.64.69.69,0,0,1-.42-.17l-2.52-3.26v2.81a.62.62,0,1,1-1.23,0v-4.6A.63.63,0,0,1,16.2,12a.61.61,0,0,1,.48.2l2.49,3.24V12.63a.61.61,0,0,1,.61-.61.61.61,0,0,1,.62.61Zm4-2.91A.62.62,0,0,1,25,15a.61.61,0,0,1-.62.61H22.54v1.09h1.84a.61.61,0,0,1,.62.61.62.62,0,0,1-.62.62H21.93a.61.61,0,0,1-.61-.62V12.63a.61.61,0,0,1,.61-.61h2.45a.61.61,0,1,1,0,1.22H22.54v1.09Z"/></g></svg>