<svg id="Layer_1" data-name="Layer 1" xmlns="http://www.w3.org/2000/svg" viewBox="0 0 187.34 194.33"><defs><style>.cls-1{fill:#dc8983;}</style></defs><g id="Contact_Us" data-name="Contact Us"><path class="cls-1" d="M58,84.37a55.4,55.4,0,0,0,4.87,7.87l.13.17a1.11,1.11,0,0,0,.14.29A83.86,83.86,0,0,0,73,104.05a22.61,22.61,0,0,0,2.51,2.48c.13.14.25.29.39.43l18.66,18.55c1.45,1.43,2.85,1.46,4.3,0q12-11.92,23.91-23.86A36,36,0,0,0,127,96.73a32.24,32.24,0,0,0,3.68-4.79,39.08,39.08,0,0,0,3-4.64,56.42,56.42,0,0,0,8.06-27.82A93.61,93.61,0,0,0,141.3,48a45,45,0,0,0-1.15-7.11,10.33,10.33,0,0,0-.63-2.69,35.85,35.85,0,0,0-4-9.81,19.56,19.56,0,0,0-3.79-4.84,2.61,2.61,0,0,0-.17-.28c-4.49-4.32-10-6.65-16-8-.21-.2-.47-.14-.72-.15a2.46,2.46,0,0,0-.38-.14,75.7,75.7,0,0,0-14.23-1.64,101.6,101.6,0,0,0-14.17.47,56.4,56.4,0,0,0-8.64,1.51.31.31,0,0,0-.35.11A29.45,29.45,0,0,0,72,16.93C65.84,19.27,60.83,23,57.53,28.84A41.84,41.84,0,0,0,53,41.48a66.54,66.54,0,0,0-1.32,11.68v.33a56.9,56.9,0,0,0,.4,12.91A55.49,55.49,0,0,0,58,84.37Zm47.9-6.32a41.49,41.49,0,0,1-10.3,1,32.76,32.76,0,0,1-8.86-1.21,13,13,0,0,1-6.93-4.33A15.66,15.66,0,0,1,77,67.69a26.33,26.33,0,0,1-.91-5.57,59.44,59.44,0,0,1,0-7.55,36.4,36.4,0,0,1,1.22-6.78v-.55c.21-.5.43-1,.64-1.51a17.19,17.19,0,0,1,2-3.18,2,2,0,0,1,.44-.27,4,4,0,0,0,.71-.44,15.67,15.67,0,0,1,7.4-3.35,42.28,42.28,0,0,1,14.28-.34,18,18,0,0,1,9.51,3.79,1.1,1.1,0,0,0,.51.27l.08-.06.07.06h0a.43.43,0,0,0,0,.16,1,1,0,0,0,.25.52c2.12,2.46,3,5.44,3.57,8.56a45.93,45.93,0,0,1,.48,8.61,31.28,31.28,0,0,1-1,7.64,13.2,13.2,0,0,1-10.37,10.35Z"/><path class="cls-1" d="M170,137.57c-4.59-2.09-9.1-4.38-13.64-6.58l-19.44-9.46a3,3,0,0,0-2.84,0c-.52.26-1.06.47-1.59.7-.1,0-.16,0-.18.12h-.24l-12.82,5.42-22,9.27a1.23,1.23,0,0,1-1.15,0c-.79-.4-1.62-.72-2.42-1.09L74.24,127.1a2.85,2.85,0,0,0-2.77.17l-26.84,15.2-14.12,8-1.35.8L27,152.47l-.52.3-1,.54-.84.47-.51.33a.85.85,0,0,0-.53.29c-1.83,1-3.67,2-5.49,3.08a4.88,4.88,0,0,1-2,.63c-1.4.12-2.8.28-4.2.49A2.24,2.24,0,0,0,10,160c-.86,2.37.53,4.18,3,4l.82-.1a3.93,3.93,0,0,1,2.66.16,1.54,1.54,0,0,0,1.49-.23,4.91,4.91,0,0,1,1.69-.65c3.21-.39,6.42-.8,9.63-1.21l12.33-1.6c3.71-.47,7.41-.92,11.11-1.41a1.21,1.21,0,0,1,1.09.4l20.55,20a2.83,2.83,0,0,0,3.89.52l37.5-20.2a1.31,1.31,0,0,1,1.61.08q14.2,10,28.46,20a3,3,0,0,0,2.78.57,3.41,3.41,0,0,0,1.81-1.83q3.38-5.83,6.72-11.71,7.13-12.39,14.28-24.77a2.88,2.88,0,0,0-.6-4A3.18,3.18,0,0,0,170,137.57ZM53.15,152.87a1.22,1.22,0,0,1-1,.6c-6.18.75-12.34,1.54-18.51,2.31a7.59,7.59,0,0,1-1.78.08L63.53,138l.09.07Zm24.94,16.19-2.19,4.06-6.52-6.33q-5.44-5.31-10.92-10.58c-.51-.49-.52-.79-.1-1.37Q66,144.2,73.48,133.53c.34-.48.59-.61,1.19-.34q8.83,4,17.72,8c.55.24.49.43.25.87Q85.35,155.56,78.09,169.06Zm39.72-15.68a2,2,0,0,0-2.26.16l-8.46,4.56q-11.73,6.35-23.47,12.68h-.25c.6-1.12,1.16-2.18,1.72-3.24l13.2-24.69a1.62,1.62,0,0,1,.87-.8q11.46-4.78,22.89-9.61c.22-.1.44-.23.66-.34.35.19.57.09.67-.29h0l6.58-2.68c-.83,1.78-1.63,3.47-2.43,5.17L118.69,153C118.5,153.52,118.34,153.76,117.81,153.38ZM165.08,142q-9,15.57-17.92,31.16c-.18.31-.26.64-.77.29q-11.5-8.14-23.07-16.22c-.45-.31-.36-.56-.25-.92a.67.67,0,0,0,.28-.52c.18-.38.35-.76.53-1.15.1-.17.2-.34.29-.51q6.18-13,12.35-26c.2-.43.32-.57.82-.32Q151,134.39,164.78,141C165.34,141.24,165.39,141.42,165.08,142Z"/></g></svg>