<svg xmlns="http://www.w3.org/2000/svg" xmlns:xlink="http://www.w3.org/1999/xlink" viewBox="0 0 281.01 257.94"><defs><style>.cls-1{fill:url(#linear-gradient);}.cls-2{fill:url(#linear-gradient-2);}.cls-3{fill:#939598;}.cls-4{fill:url(#linear-gradient-3);}.cls-5{fill:url(#linear-gradient-4);}.cls-6{fill:url(#linear-gradient-5);}.cls-7{fill:url(#linear-gradient-6);}.cls-8{fill:url(#linear-gradient-7);}.cls-9{fill:url(#linear-gradient-8);}.cls-10{fill:url(#linear-gradient-9);}.cls-11{fill:url(#linear-gradient-10);}.cls-12{fill:url(#linear-gradient-11);}.cls-13{fill:url(#linear-gradient-12);}.cls-14{fill:url(#linear-gradient-13);}.cls-15{fill:url(#linear-gradient-14);}.cls-16{fill:url(#linear-gradient-15);}</style><linearGradient id="linear-gradient" x1="45.19" y1="110.63" x2="159.6" y2="110.63" gradientUnits="userSpaceOnUse"><stop offset="0" stop-color="#e8e0d1"/><stop offset="0.47" stop-color="#d6bd7c"/><stop offset="1" stop-color="#b09944"/></linearGradient><linearGradient id="linear-gradient-2" x1="100.83" y1="125.39" x2="228.59" y2="125.39" xlink:href="#linear-gradient"/><linearGradient id="linear-gradient-3" x1="97.18" y1="156.13" x2="104.51" y2="156.13" xlink:href="#linear-gradient"/><linearGradient id="linear-gradient-4" x1="104.04" y1="156.03" x2="111.76" y2="156.03" xlink:href="#linear-gradient"/><linearGradient id="linear-gradient-5" x1="111.94" y1="156.13" x2="116.75" y2="156.13" xlink:href="#linear-gradient"/><linearGradient id="linear-gradient-6" x1="117.57" y1="156.04" x2="123.19" y2="156.04" xlink:href="#linear-gradient"/><linearGradient id="linear-gradient-7" x1="123.58" y1="156.03" x2="129.95" y2="156.03" xlink:href="#linear-gradient"/><linearGradient id="linear-gradient-8" x1="129.6" y1="156.71" x2="132.75" y2="156.71" xlink:href="#linear-gradient"/><linearGradient id="linear-gradient-9" x1="133.37" y1="156.12" x2="141.4" y2="156.12" xlink:href="#linear-gradient"/><linearGradient id="linear-gradient-10" x1="141.36" y1="156.03" x2="149.08" y2="156.03" xlink:href="#linear-gradient"/><linearGradient id="linear-gradient-11" x1="147.5" y1="156.13" x2="157.81" y2="156.13" xlink:href="#linear-gradient"/><linearGradient id="linear-gradient-12" x1="156.35" y1="156.03" x2="164.06" y2="156.03" xlink:href="#linear-gradient"/><linearGradient id="linear-gradient-13" x1="163.66" y1="156.15" x2="173.35" y2="156.15" xlink:href="#linear-gradient"/><linearGradient id="linear-gradient-14" x1="173.67" y1="156.13" x2="176.7" y2="156.13" xlink:href="#linear-gradient"/><linearGradient id="linear-gradient-15" x1="177.4" y1="156.12" x2="185.43" y2="156.12" xlink:href="#linear-gradient"/></defs><g id="Our_Project" data-name="Our Project"><path class="cls-1" d="M112.05,96.75a34.68,34.68,0,0,1,10.84-9.12,107,107,0,0,0,18.79,2.07,39.19,39.19,0,0,0,12.72-1.81c3.47-1.21,5.2-2.67,5.2-4.41q0-4.14-10.55-4.14a53.38,53.38,0,0,0-21.39,4.86q-13.34-2.74-16.76-3.27a53.85,53.85,0,0,0-20.52,1.2q-4.2-5.64-12.23-5.63Q67.8,76.5,58.31,86c-2.63,2.64-4,4.24-4,4.78a.39.39,0,0,0,.39.29c.16,0,.47-.3.91-.91a35.73,35.73,0,0,1,10.62-9.39,24,24,0,0,1,12-3.45q7,0,10.83,5.15a40.29,40.29,0,0,0-14.52,7A43.19,43.19,0,0,0,63.76,101q-4.17,6.67-4.17,12.17A9.11,9.11,0,0,0,62,119.73a8.1,8.1,0,0,0,6.19,2.53q9.15,0,17.2-9.3t8-19.89a20.26,20.26,0,0,0-2.26-9.69c2.24-.12,3.59-.19,4-.19q6.51,0,18.74,2.65,5.2,1.16,7.81,1.59-13.55,6.41-26,26.74-7.6,12.52-12.43,18Q73.08,143.8,60.17,143.8a17.36,17.36,0,0,1-9.9-2.7q-4-2.7-4-6.6c0-1.57.27-2.36.82-2.36.25,0,.38.38.38,1.15a2,2,0,0,0,2.27,2.22,3,3,0,0,0,2.36-1.11,3.91,3.91,0,0,0,1-2.65q0-3.27-3.13-3.27a4.22,4.22,0,0,0-3.33,1.68,6.17,6.17,0,0,0-1.39,4.05q0,4.68,4.41,7.61c2.93,2,6.72,2.94,11.34,2.94q13,0,25.1-9a33.87,33.87,0,0,0,7.2-7.15,136.7,136.7,0,0,0,8.26-14.77A99.23,99.23,0,0,1,112.05,96.75Zm37.2-16.5a20.84,20.84,0,0,1,6.86,1c1.81.64,2.72,1.43,2.72,2.36s-.93,1.85-2.79,2.58a18.6,18.6,0,0,1-6.7,1.08,73.33,73.33,0,0,1-13.68-1.49c-3.47-.65-5.6-1-6.41-1.16A48.47,48.47,0,0,1,149.25,80.25ZM91.53,90.71q0,10.5-7.8,20.54t-16,10a6.85,6.85,0,0,1-5.27-2.36,8.37,8.37,0,0,1-2.15-5.83q0-9.06,9.3-18.4T89.75,83.58A14.65,14.65,0,0,1,91.53,90.71Z"/><path class="cls-2" d="M222.28,119a14.29,14.29,0,0,1,.29-2.6q6-5.72,6-7.63c0-.56-.26-.85-.77-.85-1.09,0-2.2.81-3.32,2.41a17,17,0,0,0-2.51,5.78q-2.9,3.67-4.62,5.74l-3.86,4.72a1.92,1.92,0,0,0-.87-.19q-2.74,0-5.32,3.42a12.11,12.11,0,0,0-2.49,5.79q-7,7.26-12.32,7.26-4.48,0-4.48-4.14,0-3.33,3.27-8.29,10.6-2.12,15.13-4.55T211,120a3.18,3.18,0,0,0-1.23-2.53,4.46,4.46,0,0,0-3-1q-4,0-10.36,3.47-8.79,4.8-11.18,10.69Q176.34,143,172.47,143a1.75,1.75,0,0,1-2-2q0-1.87,4.53-8.67t4.43-9.88a6.46,6.46,0,0,0-1.44-4.28,4.49,4.49,0,0,0-3.57-1.74c-1.73,0-3.62,1-5.66,2.89A84.31,84.31,0,0,0,160,130.07q3.61-5.49,3.61-8.58a5.64,5.64,0,0,0-1.16-3.56,3.43,3.43,0,0,0-2.8-1.5q-2.55,0-9.94,9.9l-.68.89a1.23,1.23,0,0,0-.48.46Q138.18,143,133.78,143c-1.51,0-2.26-.72-2.26-2.17a11.38,11.38,0,0,1,2-5.3l10.75-18.35h6.31l.38-.73h-6.31l5.54-9.34a11.07,11.07,0,0,1-2.79.38,11,11,0,0,1-2.75-.38L139,116.43h-4.81l-.48.73h4.91l-6.25,10.48c-.07.08-.15.17-.23.28a17.49,17.49,0,0,1-4.74,4.85,9.28,9.28,0,0,1-5.06,2,4.07,4.07,0,0,1-2.17-.58q5.82-7.8,5.83-13.34,0-4.44-4.15-4.44-4.42,0-11.27,4.87-9.74,6.89-9.73,14.31a8.46,8.46,0,0,0,2,5.71,6.28,6.28,0,0,0,4.94,2.38q5.59,0,12-9a5.77,5.77,0,0,0,2.65.58q3.57,0,7.81-4.23l.22-.23Q128,135.1,128,138a5.78,5.78,0,0,0,1.52,4.09,5,5,0,0,0,3.79,1.64q4.58,0,13.65-12.59l2.07-2.85.07-.1a2.37,2.37,0,0,0,.56-.62q7.24-10.38,9.7-10.38c.81,0,1.21.48,1.21,1.44q0,2.55-6.41,12.77l-7.51,11.9a24.43,24.43,0,0,1,3.18-.2c.32,0,1.26.07,2.84.2q14.64-26.12,21.68-26.11c1.38,0,2.07.65,2.07,2q0,1.59-3.9,7.37a71.4,71.4,0,0,0-4.65,7.35,9.1,9.1,0,0,0-.89,4A6.06,6.06,0,0,0,168.4,142,4.62,4.62,0,0,0,172,143.7q3.27,0,9-6.85c1.4-1.68,2.59-3.12,3.57-4.36a12,12,0,0,0-.31,2.68,8.53,8.53,0,0,0,2.29,6.1,7.45,7.45,0,0,0,5.66,2.43q5.43,0,12.49-7.11a2.45,2.45,0,0,0,0,.27,6.57,6.57,0,0,0,1.95,5,7.33,7.33,0,0,0,5.23,1.85,16.12,16.12,0,0,0,10-3.18q4.22-3.18,4.21-7.51a13.46,13.46,0,0,0-1.3-5.11C223.13,123.85,222.28,120.9,222.28,119Zm-22.43,1.57q4.17-3.54,6.72-3.54c1.13,0,1.69.51,1.69,1.54q0,2.9-4.82,6.14a37.58,37.58,0,0,1-11.75,5A49.33,49.33,0,0,1,199.85,120.6Zm-80.09,5.66a8.18,8.18,0,0,0-1.88,4.87,4.74,4.74,0,0,0,1.4,3.18q-6.16,8.56-11.37,8.57-3.18,0-3.18-3.32,0-5.73,6.31-14.12t10.7-8.38q3.51,0,3.51,3.9a8.87,8.87,0,0,1-.77,3.76c-.19-.64-.54-1-1.06-1Q121.65,123.76,119.76,126.26Zm102-1.32c.06.94.09,1.9.09,2.86a16.18,16.18,0,0,1-3.63,10.09q-3.64,4.71-7.69,4.7a4.89,4.89,0,0,1-3.47-1.3,4.23,4.23,0,0,1-1.39-3.23,5.14,5.14,0,0,1,1.37-3.39,6,6,0,0,1,3.25-2c3.12-.67,4.68-2,4.68-3.85a2.37,2.37,0,0,0-.92-1.88q5.1-6.23,7.8-9.64a30,30,0,0,0-.19,3.62C221.7,122.63,221.73,124,221.8,124.94Z"/><path class="cls-3" d="M97.63,159.67a.63.63,0,0,0,.45-.18.61.61,0,0,0,.19-.44v-5.54a.56.56,0,0,0-.33-.53.53.53,0,0,0-.31-.08H97.5v-.1h3v.1h-.12a.61.61,0,0,0-.55.3.59.59,0,0,0-.09.31v5.54a.58.58,0,0,0,.19.44.61.61,0,0,0,.45.18h.12v.1h-3v-.1Zm7.2.1H104a2.52,2.52,0,0,1-2.14-.82c-1.19-1.62-1.78-2.44-1.78-2.47l2.36-3.13a.29.29,0,0,0,.08-.18.32.32,0,0,0,0-.14.3.3,0,0,0-.28-.14h-.1v-.09h2.28v.09h0a1.39,1.39,0,0,0-1.08.47l-2,2.31,2.48,3.39a1.35,1.35,0,0,0,1,.61Z"/><path class="cls-3" d="M112,159.67h.09v.1H108.9v-.1H109a.38.38,0,0,0,.32-.13.42.42,0,0,0,.11-.25.69.69,0,0,0,0-.24l-.49-1.23h-2.33l-.52,1.23a.52.52,0,0,0,0,.24.37.37,0,0,0,.11.25.39.39,0,0,0,.33.13h.08v.1h-2.14v-.1h.09a.8.8,0,0,0,.46-.14,1.08,1.08,0,0,0,.38-.41l2.3-5.22a5,5,0,0,0,.5-1.3h.09l3,6.5a1.15,1.15,0,0,0,.38.43A.83.83,0,0,0,112,159.67Zm-5.27-2.27h2l-1-2.45Z"/><path class="cls-3" d="M112.27,158.85a2.29,2.29,0,0,1,.31-1.23h.09a.86.86,0,0,0,0,.16,1.66,1.66,0,0,0,.49,1.2,1.79,1.79,0,0,0,1.35.51,1.56,1.56,0,0,0,1-.31,1,1,0,0,0,.38-.81.78.78,0,0,0-.19-.52,2.65,2.65,0,0,0-.61-.51l-1.74-1.14a1.91,1.91,0,0,1-1-1.6.68.68,0,0,1,0-.2,1.79,1.79,0,0,1,.61-1.27,2.23,2.23,0,0,1,1.48-.47,10.72,10.72,0,0,1,1.36.1h.63l-.13,1.46h-.1a1,1,0,0,0-.39-.83,1.54,1.54,0,0,0-1-.32,1.31,1.31,0,0,0-1.13.48.77.77,0,0,0-.18.46.8.8,0,0,0,.09.39,1.88,1.88,0,0,0,.61.56l1.91,1.24a1.77,1.77,0,0,1,.89,1.53,2,2,0,0,1-.72,1.62,3,3,0,0,1-1.92.56,4.5,4.5,0,0,1-1.25-.16,1.94,1.94,0,0,1-.84-.44A1.27,1.27,0,0,1,112.27,158.85Z"/><path class="cls-3" d="M118,159.67a.6.6,0,0,0,.44-.18.62.62,0,0,0,.2-.44v-5.56a.58.58,0,0,0-.15-.38.74.74,0,0,0-.49-.21h-.13v-.1h3.82a3.69,3.69,0,0,0,.81-.08l.39-.1v1.74h-.1v-.11a1,1,0,0,0-.46-.88,1.21,1.21,0,0,0-.52-.14h-1.68v2.91h1.32a.88.88,0,0,0,.61-.26.81.81,0,0,0,.24-.6v-.09h.1v2.3h-.1v-.08a.84.84,0,0,0-.24-.61.82.82,0,0,0-.59-.25h-1.34v2.81h1.31a1.83,1.83,0,0,0,1.22-.42,2.49,2.49,0,0,0,.73-1.19h.1l-.46,2h-5.16v-.1Z"/><path class="cls-3" d="M127.84,153.2v5.86a.61.61,0,0,0,.19.43.63.63,0,0,0,.45.18h.12v.1h-3v-.1h.13a.6.6,0,0,0,.43-.18.62.62,0,0,0,.2-.42V153.2H125a1,1,0,0,0-.73.29,1,1,0,0,0-.27.73v.12h-.1v-1.73a3.47,3.47,0,0,0,1.18.18h4a4.16,4.16,0,0,0,.67-.06,2.41,2.41,0,0,0,.5-.12v1.73h-.1v-.12a.92.92,0,0,0-.47-.88,1.17,1.17,0,0,0-.52-.14Z"/><path class="cls-3" d="M129.92,156.86l.08-.33h3l.08.33-.08.34h-3Z"/><path class="cls-3" d="M141.54,152.9a.58.58,0,0,0-.53.29.75.75,0,0,0-.09.3v5.15a5.89,5.89,0,0,0,.09,1.12l0,.15H141l-5-4.79v4a.58.58,0,0,0,.18.42.59.59,0,0,0,.43.17h.19v.1h-3v-.1h.18a.6.6,0,0,0,.44-.17.58.58,0,0,0,.18-.43v-5.18a5.49,5.49,0,0,0-.09-1.09l0-.15h.09l5,4.79V153.5a.59.59,0,0,0-.19-.43.57.57,0,0,0-.42-.17h-.18v-.1h3v.1Z"/><path class="cls-3" d="M149.31,159.67h.09v.1h-3.18v-.1h.09a.39.39,0,0,0,.33-.13.4.4,0,0,0,.1-.25.69.69,0,0,0-.05-.24l-.49-1.23h-2.33l-.52,1.23a.69.69,0,0,0,0,.24.42.42,0,0,0,.11.25.39.39,0,0,0,.33.13h.08v.1h-2.13v-.1h.09a.79.79,0,0,0,.45-.14,1,1,0,0,0,.38-.41l2.31-5.22a4.87,4.87,0,0,0,.49-1.3h.09l3,6.5a1,1,0,0,0,.37.43A.85.85,0,0,0,149.31,159.67ZM144,157.4h2l-1-2.45Z"/><path class="cls-3" d="M158.14,152.9h-.09a1,1,0,0,0-.51.15.78.78,0,0,0-.36.42l-1.68,5.38a3.5,3.5,0,0,0-.17,1V160h-.1l-2.17-4.81-1.57,3.71a2.84,2.84,0,0,0-.24,1.1h-.1l-2.39-6.48a1,1,0,0,0-.36-.43.92.92,0,0,0-.49-.14h-.08v-.1h3v.1h-.09a.38.38,0,0,0-.32.13.4.4,0,0,0-.1.25.59.59,0,0,0,0,.23l1.23,3.47,1.8-4.34h.09l2,4.37,1-3.51a.85.85,0,0,0,0-.23.45.45,0,0,0-.09-.25.37.37,0,0,0-.32-.13H156v-.1h2.11Z"/><path class="cls-3" d="M164.3,159.67h.09v.1h-3.18v-.1h.09a.38.38,0,0,0,.32-.13.4.4,0,0,0,.1-.25.52.52,0,0,0-.05-.24l-.48-1.23h-2.34l-.52,1.23a.69.69,0,0,0-.05.24.42.42,0,0,0,.11.25.42.42,0,0,0,.33.13h.08v.1h-2.13v-.1h.09a.82.82,0,0,0,.46-.14,1.08,1.08,0,0,0,.38-.41l2.3-5.22a5.48,5.48,0,0,0,.5-1.3h.09l3,6.5a1.07,1.07,0,0,0,.38.43A.83.83,0,0,0,164.3,159.67ZM159,157.4h2l-1-2.45Z"/><path class="cls-3" d="M173.52,159.67h.16v.1h-3v-.09h.15a.37.37,0,0,0,.28-.14.31.31,0,0,0,.1-.28l-.38-3.62L169,158.87a2.41,2.41,0,0,0-.38,1.1h-.1l-2.56-4.3-.39,3.59a.39.39,0,0,0,.39.42h.15v.09H164v-.1h.16a.75.75,0,0,0,.48-.16.67.67,0,0,0,.24-.46l.83-6.39h.09l3.09,5.08,3-5.08h.09l.85,6.39a.78.78,0,0,0,.25.46A.75.75,0,0,0,173.52,159.67Z"/><path class="cls-3" d="M174.12,159.67a.63.63,0,0,0,.64-.62v-5.54a.61.61,0,0,0-.19-.44.64.64,0,0,0-.45-.17H174v-.1h3v.1h-.12a.64.64,0,0,0-.45.17.58.58,0,0,0-.19.44v5.54a.58.58,0,0,0,.19.44.61.61,0,0,0,.45.18H177v.1h-3v-.1Z"/><path class="cls-3" d="M185.57,152.9a.6.6,0,0,0-.53.29.75.75,0,0,0-.09.3v5.15a5.89,5.89,0,0,0,.09,1.12l0,.15H185l-5-4.79v4a.6.6,0,0,0,.61.59h.18v.1h-3v-.1h.18a.6.6,0,0,0,.62-.6v-5.18a5.49,5.49,0,0,0-.09-1.09l0-.15h.09l5,4.79V153.5a.63.63,0,0,0-.19-.43.59.59,0,0,0-.43-.17h-.18v-.1h3v.1Z"/><path class="cls-4" d="M97.31,159.51a.6.6,0,0,0,.44-.18.62.62,0,0,0,.2-.44v-5.54a.59.59,0,0,0-.33-.53.55.55,0,0,0-.31-.08h-.13v-.1h3v.1h-.12a.62.62,0,0,0-.55.3.59.59,0,0,0-.09.31v5.54a.61.61,0,0,0,.19.44.64.64,0,0,0,.45.18h.12v.1h-3v-.1Zm7.2.1h-.82a2.52,2.52,0,0,1-2.14-.82c-1.19-1.62-1.79-2.44-1.79-2.47l2.37-3.13a.27.27,0,0,0,.07-.18.44.44,0,0,0,0-.13.3.3,0,0,0-.28-.15h-.1v-.09h2.28v.09h0a1.4,1.4,0,0,0-1.09.47L101,155.51l2.48,3.39a1.35,1.35,0,0,0,1,.61Z"/><path class="cls-5" d="M111.67,159.51h.09v.1h-3.18v-.1h.08a.39.39,0,0,0,.33-.13.4.4,0,0,0,.1-.25.52.52,0,0,0,0-.24l-.48-1.23h-2.34l-.52,1.23a.69.69,0,0,0,0,.24.42.42,0,0,0,.11.25.42.42,0,0,0,.33.13h.08v.1H104v-.1h.09a.85.85,0,0,0,.46-.14A1.08,1.08,0,0,0,105,159l2.3-5.22a5.48,5.48,0,0,0,.5-1.3h.09l3,6.5a1.07,1.07,0,0,0,.38.43A.83.83,0,0,0,111.67,159.51Zm-5.28-2.27h2l-1-2.45Z"/><path class="cls-6" d="M111.94,158.69a2.39,2.39,0,0,1,.31-1.23h.09s0,.11,0,.16a1.67,1.67,0,0,0,.5,1.2,1.8,1.8,0,0,0,1.35.52,1.58,1.58,0,0,0,1-.32,1,1,0,0,0,.37-.81.82.82,0,0,0-.18-.52,2.89,2.89,0,0,0-.61-.51L113.06,156a1.92,1.92,0,0,1-1-1.6,1.36,1.36,0,0,1,0-.2,1.8,1.8,0,0,1,.62-1.27,2.23,2.23,0,0,1,1.48-.47,10.71,10.71,0,0,1,1.35.1h.63l-.13,1.46H116a1,1,0,0,0-.38-.83,1.58,1.58,0,0,0-1-.32,1.3,1.3,0,0,0-1.13.48.77.77,0,0,0-.18.46.8.8,0,0,0,.09.39,1.78,1.78,0,0,0,.61.56l1.9,1.24a1.76,1.76,0,0,1,.9,1.53,1.92,1.92,0,0,1-.72,1.62,3,3,0,0,1-1.92.56,4.5,4.5,0,0,1-1.25-.16,1.93,1.93,0,0,1-.85-.44A1.53,1.53,0,0,1,111.94,158.69Z"/><path class="cls-7" d="M117.7,159.51a.6.6,0,0,0,.44-.18.61.61,0,0,0,.19-.44v-5.56a.53.53,0,0,0-.15-.38.71.71,0,0,0-.48-.21h-.13v-.1h3.81a3.56,3.56,0,0,0,.81-.08l.39-.1v1.74h-.1v-.11a.93.93,0,0,0-.46-.88,1.17,1.17,0,0,0-.52-.14h-1.67V156h1.32a.87.87,0,0,0,.6-.26.81.81,0,0,0,.24-.6V155h.1v2.3H122v-.08a.87.87,0,0,0-.23-.61.86.86,0,0,0-.59-.25h-1.34v2.81h1.31a1.83,1.83,0,0,0,1.22-.42,2.49,2.49,0,0,0,.73-1.19h.1l-.46,2h-5.16v-.1Z"/><path class="cls-8" d="M127.52,153v5.86a.61.61,0,0,0,.19.44.64.64,0,0,0,.44.17h.12v.1h-3v-.1h.13a.66.66,0,0,0,.44-.17.66.66,0,0,0,.2-.43V153h-1.35a1,1,0,0,0-.72.29,1,1,0,0,0-.27.73v.12h-.1v-1.73a3.41,3.41,0,0,0,1.17.18h4a4.06,4.06,0,0,0,.67-.06,2.55,2.55,0,0,0,.51-.12v1.73h-.1v-.12a.94.94,0,0,0-.47-.88,1.22,1.22,0,0,0-.53-.14Z"/><path class="cls-9" d="M129.6,156.7l.08-.33h3l.08.33-.08.34h-3Z"/><path class="cls-10" d="M141.21,152.74a.6.6,0,0,0-.53.29.61.61,0,0,0-.08.3v5.15a6,6,0,0,0,.08,1.12l0,.15h-.09l-5-4.79v4a.6.6,0,0,0,.61.59h.19v.1h-3v-.1h.18a.6.6,0,0,0,.44-.17.57.57,0,0,0,.17-.43v-5.18a5.58,5.58,0,0,0-.08-1.09l0-.15h.09l5,4.79v-3.94a.63.63,0,0,0-.19-.43.57.57,0,0,0-.43-.17h-.18v-.1h3v.1Z"/><path class="cls-11" d="M149,159.51h.09v.1H145.9v-.1H146a.38.38,0,0,0,.32-.13.42.42,0,0,0,.11-.25.69.69,0,0,0,0-.24l-.49-1.23h-2.33l-.52,1.23a.52.52,0,0,0-.05.24.37.37,0,0,0,.11.25.39.39,0,0,0,.33.13h.08v.1h-2.14v-.1h.09a.8.8,0,0,0,.46-.14,1.08,1.08,0,0,0,.38-.41l2.3-5.22a5.48,5.48,0,0,0,.5-1.3h.09l3,6.5a1.15,1.15,0,0,0,.38.43A.83.83,0,0,0,149,159.51Zm-5.27-2.27h2l-1-2.45Z"/><path class="cls-12" d="M157.81,152.74h-.09a1,1,0,0,0-.5.15.85.85,0,0,0-.37.42l-1.67,5.38a3.5,3.5,0,0,0-.17,1v.09h-.1L152.74,155l-1.58,3.71a3.26,3.26,0,0,0-.24,1.1h-.1l-2.38-6.48a1,1,0,0,0-.37-.43.89.89,0,0,0-.49-.14h-.08v-.1h3v.1h-.09a.36.36,0,0,0-.31.13.4.4,0,0,0-.1.25.59.59,0,0,0,0,.23l1.22,3.47,1.81-4.34h.09l2,4.37,1-3.51a.85.85,0,0,0,0-.23.47.47,0,0,0-.1-.25.35.35,0,0,0-.31-.13h-.09v-.1h2.1Z"/><path class="cls-13" d="M164,159.51h.09v.1h-3.18v-.1H161a.39.39,0,0,0,.33-.13.4.4,0,0,0,.1-.25.69.69,0,0,0-.05-.24l-.49-1.23h-2.33l-.52,1.23a.69.69,0,0,0,0,.24.42.42,0,0,0,.11.25.39.39,0,0,0,.33.13h.08v.1h-2.13v-.1h.09a.79.79,0,0,0,.45-.14,1,1,0,0,0,.38-.41l2.31-5.22a5.28,5.28,0,0,0,.49-1.3h.09l3,6.5a1.15,1.15,0,0,0,.38.43A.85.85,0,0,0,164,159.51Zm-5.27-2.27h2l-1-2.45Z"/><path class="cls-14" d="M173.19,159.51h.16v.1h-3v-.09h.15a.41.41,0,0,0,.29-.13.37.37,0,0,0,.1-.29l-.39-3.62-1.87,3.23a2.3,2.3,0,0,0-.38,1.1h-.1l-2.56-4.3-.39,3.59a.34.34,0,0,0,.1.29.36.36,0,0,0,.29.13h.15v.09h-2.09v-.1h.16a.68.68,0,0,0,.73-.62l.83-6.39h.09l3.09,5.08,3-5.08h.09l.85,6.39a.7.7,0,0,0,.72.62Z"/><path class="cls-15" d="M173.8,159.51a.6.6,0,0,0,.44-.18.62.62,0,0,0,.2-.44v-5.54a.62.62,0,0,0-.2-.44.64.64,0,0,0-.44-.17h-.13v-.1h3v.1h-.12a.68.68,0,0,0-.45.17.61.61,0,0,0-.19.44v5.54a.61.61,0,0,0,.19.44.64.64,0,0,0,.45.18h.12v.1h-3v-.1Z"/><path class="cls-16" d="M185.25,152.74a.58.58,0,0,0-.53.29.53.53,0,0,0-.09.3v5.15a5.89,5.89,0,0,0,.09,1.12l0,.15h-.09l-5-4.79v4a.6.6,0,0,0,.61.59h.19v.1h-3v-.1h.18a.6.6,0,0,0,.44-.17.58.58,0,0,0,.18-.43v-5.18a5.49,5.49,0,0,0-.09-1.09l0-.15h.09l5,4.79v-3.94a.63.63,0,0,0-.19-.43.57.57,0,0,0-.43-.17h-.18v-.1h3v.1Z"/></g></svg>