<svg xmlns="http://www.w3.org/2000/svg" viewBox="0 0 281.01 257.94"><defs><style>.cls-1{fill:#fff;}.cls-2{fill:#cc1c81;}</style></defs><g id="Our_Project" data-name="Our Project"><path class="cls-1" d="M40.47,113.66H34.26v-2.24H49.37v2.24H43.14v18.18H40.47Z"/><path class="cls-1" d="M54.28,111.42V120h9.88v-8.54h2.67v20.42H64.16v-9.58H54.28v9.58H51.62V111.42Z"/><path class="cls-1" d="M81.94,122.26H74v7.37h8.84v2.21H71.37V111.42H82.43v2.21H74v6.45h7.9Z"/><path class="cls-1" d="M95.36,111.42v12.12c0,4.54,2,6.48,4.76,6.48,3,0,5-2,5-6.48V111.42h2.66v11.94c0,6.27-3.3,8.81-7.72,8.81-4.18,0-7.33-2.36-7.33-8.72v-12Z"/><path class="cls-1" d="M112.33,131.84V111.42h2.91l6.51,10.33a55.46,55.46,0,0,1,3.64,6.63l.09,0c-.24-2.72-.3-5.21-.3-8.36v-8.57h2.48v20.42H125l-6.48-10.36a59.38,59.38,0,0,1-3.79-6.82l-.09,0c.15,2.58.18,5,.18,8.42v8.73Z"/><path class="cls-1" d="M134.9,111.42v20.42h-2.67V111.42Z"/><path class="cls-1" d="M156.35,134.84c-2.76-.73-5.46-1.55-7.82-2.37a4.13,4.13,0,0,0-1.24-.3c-4.88-.18-9-3.76-9-10.33s4-10.75,9.48-10.75,9.18,4.3,9.18,10.33c0,5.24-2.42,8.57-5.81,9.78v.12c2,.52,4.24,1,6,1.31ZM147.62,130c4.18,0,6.55-3.85,6.55-8.48,0-4.09-2.12-8.3-6.46-8.3s-6.63,4.12-6.63,8.54,2.36,8.24,6.51,8.24Z"/><path class="cls-1" d="M163,111.42v12.12c0,4.54,2,6.48,4.76,6.48,3,0,5-2,5-6.48V111.42h2.66v11.94c0,6.27-3.3,8.81-7.72,8.81-4.18,0-7.33-2.36-7.33-8.72v-12Z"/><path class="cls-1" d="M190.52,122.26h-7.91v7.37h8.85v2.21H180V111.42H191v2.21h-8.4v6.45h7.91Z"/><path class="cls-1" d="M38.31,143.62v1H34.14v-6.41h1.27v5.45Z"/><path class="cls-1" d="M61.13,138.18l2.76,6.4H62.6l-.7-1.6H59.19l-.72,1.6H57.24l2.74-6.4ZM59.58,142h1.93l-.94-2.35Z"/><path class="cls-1" d="M83.25,144.58v-6.4h2.14a7.36,7.36,0,0,1,1.69.18,3.66,3.66,0,0,1,1.28.56,2.51,2.51,0,0,1,.82,1,3.27,3.27,0,0,1,.28,1.42,2.94,2.94,0,0,1-.32,1.37,3.1,3.1,0,0,1-.88,1,4.07,4.07,0,0,1-1.32.65,6.14,6.14,0,0,1-1.64.21Zm1.27-5.44v4.48h.78a4.22,4.22,0,0,0,1.24-.17,2.91,2.91,0,0,0,.91-.48,2.2,2.2,0,0,0,.56-.73,2.38,2.38,0,0,0,.19-.93,2,2,0,0,0-.68-1.61,3.33,3.33,0,0,0-2.13-.56Z"/><path class="cls-1" d="M110.3,142.36v2.22H109v-6.4h2.12a4.32,4.32,0,0,1,1,.12,2.34,2.34,0,0,1,.83.37,1.7,1.7,0,0,1,.56.63,1.91,1.91,0,0,1,.19.89,1.95,1.95,0,0,1-.81,1.64,2.65,2.65,0,0,1-.9.4,4.92,4.92,0,0,1-1.12.13Zm0-3.22v2.25H111a1.77,1.77,0,0,0,1.21-.33,1.13,1.13,0,0,0,.36-.86,1.88,1.88,0,0,0,0-.43.72.72,0,0,0-.21-.33,1.22,1.22,0,0,0-.41-.22,2.64,2.64,0,0,0-.7-.08Z"/><path class="cls-1" d="M139.07,144.58h-1.45L136.51,143a2.94,2.94,0,0,0-.75-.8,1.27,1.27,0,0,0-.65-.21h-.48v2.58h-1.26v-6.4h2.32a3.82,3.82,0,0,1,.9.11,2.69,2.69,0,0,1,.77.34,1.76,1.76,0,0,1,.55.57,1.52,1.52,0,0,1,.21.8,1.14,1.14,0,0,1-.15.58,1.49,1.49,0,0,1-.39.44,1.86,1.86,0,0,1-.53.3,2.45,2.45,0,0,1-.58.14,1.45,1.45,0,0,1,.66.5c.22.27.44.55.66.86Zm-4.44-5.44V141h.89a1.72,1.72,0,0,0,1-.26.9.9,0,0,0,.35-.77.75.75,0,0,0-.32-.61,1.65,1.65,0,0,0-1-.25Z"/><path class="cls-1" d="M161.9,138.18l2.76,6.4h-1.29l-.7-1.6H160l-.71,1.6H158l2.74-6.4ZM160.35,142h1.93l-.95-2.35Z"/><path class="cls-1" d="M187.32,144.7a4.18,4.18,0,0,1-1.46-.24,3.26,3.26,0,0,1-1.1-.66,2.93,2.93,0,0,1-.71-1,3.42,3.42,0,0,1-.25-1.3,3.92,3.92,0,0,1,.25-1.4,3.1,3.1,0,0,1,.72-1.08,3.47,3.47,0,0,1,1.14-.7,4.54,4.54,0,0,1,1.53-.25,4.35,4.35,0,0,1,1.49.25,3.42,3.42,0,0,1,1.12.69,3,3,0,0,1,.72,1,3.29,3.29,0,0,1,.26,1.31,3.57,3.57,0,0,1-.26,1.38,3.11,3.11,0,0,1-.72,1.06,3.37,3.37,0,0,1-1.17.68A4.73,4.73,0,0,1,187.32,144.7Zm0-.94a3,3,0,0,0,1-.15,2,2,0,0,0,.78-.44,2,2,0,0,0,.51-.76,2.71,2.71,0,0,0,.19-1.08,2.62,2.62,0,0,0-.18-1,2,2,0,0,0-.5-.72,2.1,2.1,0,0,0-.73-.44,2.58,2.58,0,0,0-.88-.15,2.91,2.91,0,0,0-.95.15,2,2,0,0,0-.77.45,2.28,2.28,0,0,0-.5.77,3,3,0,0,0-.18,1.08,2.53,2.53,0,0,0,.18,1,2,2,0,0,0,.49.72,1.79,1.79,0,0,0,.71.43A2.49,2.49,0,0,0,187.32,143.76Z"/><path class="cls-2" d="M198.68,144.86l15-18.93a11,11,0,0,0,1.61-2.92,8.7,8.7,0,0,0,.53-3,6.86,6.86,0,0,0-.34-2.31,4.63,4.63,0,0,0-1.2-1.79q-1.43-1.65-4.76-1.65a11.84,11.84,0,0,0-1.39.08,8.22,8.22,0,0,0-1.2.24,9.51,9.51,0,0,0-1.17.37,7.61,7.61,0,0,0-1.16.63,7.19,7.19,0,0,0-1.05.89c-.43.42-1,1-1.61,1.63l-2.78-1.81a24,24,0,0,1,3.45-3,12.33,12.33,0,0,1,6.76-1.9q5,0,7.61,2.42a7.34,7.34,0,0,1,1.75,2.52,8.24,8.24,0,0,1,.65,3.33,12.71,12.71,0,0,1-2.77,7.46l-11.6,15h14.68v2.78Z"/><path class="cls-2" d="M244.43,138.52A11.25,11.25,0,0,1,241.9,142a11.77,11.77,0,0,1-3.72,2.32,12.79,12.79,0,0,1-4.54.77,11.55,11.55,0,0,1-8.24-3,10.91,10.91,0,0,1-2.57-3.51,9.76,9.76,0,0,1-.86-4.42l.07-2a9.14,9.14,0,0,1,.44-1.77,12.56,12.56,0,0,1,1-2.06,2.72,2.72,0,0,1,.17-.32l.3-.5c.11-.19.23-.37.34-.55s.21-.34.28-.47l10.36-15.14h4L230,124.67l.53-.26a13,13,0,0,1,4.24-.58,10.26,10.26,0,0,1,3.9.73,10.7,10.7,0,0,1,3.42,2.36,9.62,9.62,0,0,1,3.22,7.38A10.36,10.36,0,0,1,244.43,138.52Zm-3.1-7.17a8,8,0,0,0-1.76-2.65,8.5,8.5,0,0,0-6-2.41,9,9,0,0,0-3.19.53,8.6,8.6,0,0,0-2.7,1.77,7.8,7.8,0,0,0-2.4,5.77,8.82,8.82,0,0,0,2.33,5.94,8,8,0,0,0,6,2.36,7.74,7.74,0,0,0,5.85-2.3,7.75,7.75,0,0,0,2.48-5.71A8.33,8.33,0,0,0,241.33,131.35Z"/></g></svg>