<svg xmlns="http://www.w3.org/2000/svg" xmlns:xlink="http://www.w3.org/1999/xlink" viewBox="0 0 281.01 257.94"><defs><style>.cls-1{fill:url(#linear-gradient);}.cls-2{fill:url(#linear-gradient-2);}.cls-3{fill:url(#linear-gradient-3);}.cls-4{fill:url(#linear-gradient-4);}.cls-5{fill:url(#linear-gradient-5);}.cls-6{fill:url(#linear-gradient-6);}.cls-7{fill:url(#linear-gradient-7);}.cls-8{fill:url(#linear-gradient-8);}.cls-9{fill:url(#linear-gradient-9);}.cls-10{fill:url(#linear-gradient-10);}.cls-11{fill:url(#linear-gradient-11);}.cls-12{fill:url(#linear-gradient-12);}.cls-13{fill:url(#linear-gradient-13);}.cls-14{fill:url(#linear-gradient-14);}.cls-15{fill:url(#linear-gradient-15);}.cls-16{fill:url(#linear-gradient-16);}.cls-17{fill:url(#linear-gradient-17);}.cls-18{fill:url(#linear-gradient-18);}.cls-19{fill:url(#linear-gradient-19);}.cls-20{fill:url(#linear-gradient-20);}.cls-21{fill:url(#linear-gradient-21);}.cls-22{fill:url(#linear-gradient-22);}.cls-23{fill:url(#linear-gradient-23);}.cls-24{fill:url(#linear-gradient-24);}.cls-25{fill:url(#linear-gradient-25);}.cls-26{fill:url(#linear-gradient-26);}.cls-27{fill:url(#linear-gradient-27);}.cls-28{fill:url(#linear-gradient-28);}</style><linearGradient id="linear-gradient" x1="-59.36" y1="160.56" x2="664.37" y2="160.56" gradientUnits="userSpaceOnUse"><stop offset="0" stop-color="#806848"/><stop offset="0.51" stop-color="#e6d1ac"/><stop offset="1" stop-color="#806848"/></linearGradient><linearGradient id="linear-gradient-2" x1="-59.36" y1="160.34" x2="664.38" y2="160.34" xlink:href="#linear-gradient"/><linearGradient id="linear-gradient-3" x1="-59.34" y1="160.68" x2="664.34" y2="160.68" xlink:href="#linear-gradient"/><linearGradient id="linear-gradient-4" x1="-59.35" y1="160.37" x2="664.35" y2="160.37" xlink:href="#linear-gradient"/><linearGradient id="linear-gradient-5" x1="-342.3" y1="123.54" x2="713.99" y2="123.54" xlink:href="#linear-gradient"/><linearGradient id="linear-gradient-6" x1="-342.42" y1="123.54" x2="714.18" y2="123.54" xlink:href="#linear-gradient"/><linearGradient id="linear-gradient-7" x1="-342.26" y1="123.54" x2="713.93" y2="123.54" xlink:href="#linear-gradient"/><linearGradient id="linear-gradient-8" x1="-342.33" y1="123.54" x2="714.04" y2="123.54" xlink:href="#linear-gradient"/><linearGradient id="linear-gradient-9" x1="-342.58" y1="123.54" x2="714.4" y2="123.54" xlink:href="#linear-gradient"/><linearGradient id="linear-gradient-10" x1="-342.33" y1="123.54" x2="714.03" y2="123.54" xlink:href="#linear-gradient"/><linearGradient id="linear-gradient-11" x1="-342.32" y1="123.54" x2="714.01" y2="123.54" xlink:href="#linear-gradient"/><linearGradient id="linear-gradient-12" x1="-107.57" y1="123.62" x2="671.29" y2="123.62" xlink:href="#linear-gradient"/><linearGradient id="linear-gradient-13" x1="-107.57" y1="123.62" x2="671.31" y2="123.62" xlink:href="#linear-gradient"/><linearGradient id="linear-gradient-14" x1="-107.58" y1="123.62" x2="671.32" y2="123.62" xlink:href="#linear-gradient"/><linearGradient id="linear-gradient-15" x1="-107.57" y1="123.62" x2="671.31" y2="123.62" xlink:href="#linear-gradient"/><linearGradient id="linear-gradient-16" x1="-107.56" y1="123.62" x2="671.29" y2="123.62" xlink:href="#linear-gradient"/><linearGradient id="linear-gradient-17" x1="-107.41" y1="123.62" x2="671.11" y2="123.62" xlink:href="#linear-gradient"/><linearGradient id="linear-gradient-18" x1="-107.46" y1="123.62" x2="671.17" y2="123.62" xlink:href="#linear-gradient"/><linearGradient id="linear-gradient-19" x1="-107.59" y1="123.62" x2="671.32" y2="123.62" xlink:href="#linear-gradient"/><linearGradient id="linear-gradient-20" x1="-172.03" y1="165.21" x2="576.04" y2="165.21" xlink:href="#linear-gradient"/><linearGradient id="linear-gradient-21" x1="-172.02" y1="165.31" x2="576.02" y2="165.31" xlink:href="#linear-gradient"/><linearGradient id="linear-gradient-22" x1="-172.03" y1="165.21" x2="576.03" y2="165.21" xlink:href="#linear-gradient"/><linearGradient id="linear-gradient-23" x1="-172.02" y1="165.21" x2="576.01" y2="165.21" xlink:href="#linear-gradient"/><linearGradient id="linear-gradient-24" x1="-172.02" y1="165.31" x2="576.01" y2="165.31" xlink:href="#linear-gradient"/><linearGradient id="linear-gradient-25" x1="-172.02" y1="165.11" x2="576.02" y2="165.11" xlink:href="#linear-gradient"/><linearGradient id="linear-gradient-26" x1="-172" y1="165.31" x2="576" y2="165.31" xlink:href="#linear-gradient"/><linearGradient id="linear-gradient-27" x1="-172.06" y1="165.21" x2="576.06" y2="165.21" xlink:href="#linear-gradient"/><linearGradient id="linear-gradient-28" x1="-172.04" y1="165.11" x2="576.04" y2="165.11" xlink:href="#linear-gradient"/></defs><g id="Our_Project" data-name="Our Project"><path class="cls-1" d="M190.68,163.51c0-6.53,5-11.6,10.49-13.39a3.14,3.14,0,0,1,.76-.19c.13,0,.24.08.24.16s-.35.35-.7.52c-3.91,1.79-8.44,5.8-8.44,12.61,0,3.74,1.56,6.94,4.58,6.94,2.1,0,3.78-1.77,3.78-4.8s-2-5.62-4.21-5.62a4.54,4.54,0,0,0-2.21.47c-.19.08-.3,0-.3-.09s.08-.21.27-.35a5.63,5.63,0,0,1,3.4-1.06,5.34,5.34,0,0,1,5.29,5.59c0,3.88-2.62,6.89-6.45,6.89C192.92,171.19,190.68,168,190.68,163.51Z"/><path class="cls-2" d="M208.21,170.73a.39.39,0,0,1-.38-.38c0-.22.27-.46.49-.65,5.39-4.83,9.41-8.57,9.41-13.78,0-3.88-2.48-5-4.29-5a3.82,3.82,0,0,0-2.89,1,3.64,3.64,0,0,0-1,2.63c0,.25-.08.41-.21.41s-.19-.11-.22-.35-.16-2.5-.16-3.34c0-.16,0-.24.27-.4a11.25,11.25,0,0,1,4.75-.95c4.07,0,6.09,2.6,6.09,5.48,0,5.61-6,10.63-9.38,13.5-.14.11-.08.19.05.19h2c.46,0,3.64,0,4.61-.14,2-.19,2.83-1,3.18-2.6.06-.3.14-.41.3-.41s.16.17.16.33a26,26,0,0,1-.81,3.63c-.21.74-.62.84-1.75.84C212.85,170.78,209.29,170.73,208.21,170.73Z"/><path class="cls-3" d="M234.93,150.23c.17-.36.25-.38.35-.38a2.27,2.27,0,0,1,.81.4c.14.14.11.22,0,.46l-9.19,20.56c-.11.22-.16.24-.25.24a3.32,3.32,0,0,1-.86-.46c-.11-.11-.11-.21,0-.43Z"/><path class="cls-4" d="M244.1,153.64c0-.54,0-.86-.4-.86a15,15,0,0,0-2.62.84c-.08,0-.24,0-.24-.14a.41.41,0,0,1,.19-.27c1.72-1.17,2.75-1.79,4.47-3a1.49,1.49,0,0,1,.65-.32c.22,0,.22.3.22.57,0,.08-.16,5.88-.16,12.07,0,2.71,0,5.12.13,6.31,0,.84.24,1.3,1.13,1.39a7,7,0,0,1,.73.08c.27,0,.43.11.43.27s-.13.19-.46.19c-2,0-2.93-.08-3.07-.08s-1.59.08-3.32.08c-.29,0-.46-.06-.46-.19s.11-.22.38-.22a8.83,8.83,0,0,0,1-.08c1-.08,1.21-.54,1.29-1.6s.08-3.44.08-6.15Z"/><polygon class="cls-5" points="17.96 109.96 17.96 111.18 25.13 111.18 25.13 137.11 26.87 137.11 26.87 111.18 27.93 111.18 27.93 137.11 28.04 137.11 32.05 137.11 32.15 137.11 32.15 111.18 33.21 111.18 33.21 137.11 34.95 137.11 34.95 111.18 42.12 111.18 42.12 109.96 17.96 109.96"/><rect class="cls-6" x="68.82" y="109.96" width="3.97" height="27.15"/><rect class="cls-7" x="48.55" y="109.96" width="3.97" height="27.15"/><polygon class="cls-8" points="66.04 109.96 65.96 109.96 65.96 123.33 55.38 123.33 55.38 109.96 55.3 109.96 53.69 109.96 53.6 109.96 53.6 137.11 53.69 137.11 55.3 137.11 55.38 137.11 55.38 124.52 65.96 124.52 65.96 137.11 66.04 137.11 67.65 137.11 67.74 137.11 67.74 109.96 67.65 109.96 66.04 109.96"/><rect class="cls-9" x="81.33" y="109.96" width="1.7" height="27.15"/><polygon class="cls-10" points="83.94 109.96 83.94 137.11 87.96 137.11 88.02 109.96 83.94 109.96"/><polygon class="cls-11" points="98.98 111.15 98.98 109.96 90.67 109.96 88.97 109.96 88.97 111.15 88.97 123.33 88.97 124.52 88.97 135.93 88.97 137.11 90.67 137.11 98.98 137.11 98.98 135.93 90.67 135.93 90.67 124.52 98.98 124.52 98.98 123.33 90.67 123.33 90.67 111.15 98.98 111.15"/><path class="cls-12" d="M113.3,110.13h4.09l0,24.08a5.37,5.37,0,0,0,1.15.68l0-24.76h1.79v25.4a11.08,11.08,0,0,0,2.79.37c4.43,0,8.09-2.56,8.09-5.67l-.05-20.1h1.73l.05,20.1c0,3.81-4.38,6.88-9.82,6.88s-9.78-3.07-9.78-6.88Z"/><path class="cls-13" d="M156.25,110.13H158v27l-13.1-17v17H143.2v-27h1.68l11.37,14.67Zm-11.37,5.8v1.79l11.27,14.64v-1.69Zm18.21-5.8v27h-4v-27Z"/><path class="cls-14" d="M173.34,110.13H175v27h-1.69Zm6.84,27h-4v-27h4Z"/><path class="cls-15" d="M198.37,137.11c-5.44,0-9.82-3.07-9.82-6.88V117c0-3.81,4.38-6.88,9.82-6.88s9.78,3.07,9.78,6.88v13.22c0,2.36-1.64,4.42-4.19,5.67h6.3v1.21Zm2.79-25.4a11,11,0,0,0-2.79-.37c-4.48,0-8.09,2.53-8.09,5.67v13.22c0,3.14,3.61,5.67,8.09,5.67a10.56,10.56,0,0,0,2.79-.37Zm2.89,1.32a6.12,6.12,0,0,0-1.15-.68v22.54a5.63,5.63,0,0,0,1.15-.68Z"/><path class="cls-16" d="M218.65,110.13h4.09l0,24.08a5.37,5.37,0,0,0,1.15.68l-.05-24.76h1.79v25.4a11.08,11.08,0,0,0,2.79.37c4.43,0,8.09-2.56,8.09-5.67l-.05-20.1h1.74l0,20.1c0,3.81-4.38,6.88-9.82,6.88s-9.77-3.07-9.77-6.88Z"/><rect class="cls-17" x="245.05" y="110.13" width="1.68" height="26.99"/><polygon class="cls-18" points="247.64 110.13 247.64 137.11 251.64 137.11 251.69 110.13 247.64 110.13"/><polygon class="cls-19" points="262.6 111.31 262.6 110.13 254.33 110.13 252.65 110.13 252.65 111.31 252.65 123.42 252.65 124.6 252.65 135.93 252.65 137.11 254.33 137.11 262.6 137.11 262.6 135.93 254.33 135.93 254.33 124.6 262.6 124.6 262.6 123.42 254.33 123.42 254.33 111.31 262.6 111.31"/><path class="cls-20" d="M39.1,170.43c-.2-.1-.22-.16-.22-.54,0-.72.06-1.29.07-1.52s0-.23.12-.23.1,0,.1.16a2.7,2.7,0,0,0,0,.53,1.93,1.93,0,0,0,2.11,1.46,1.91,1.91,0,0,0,2-1.91c0-1-.41-1.56-1.63-2.57l-.65-.53c-1.5-1.25-1.85-2.14-1.85-3.11,0-1.53,1.14-2.57,3-2.57a5.22,5.22,0,0,1,1.32.14,2.15,2.15,0,0,0,.5.07c.12,0,.14,0,.14.1s-.05.54-.05,1.52c0,.23,0,.33-.1.33s-.1-.07-.12-.19a2.62,2.62,0,0,0-.18-.72c-.09-.15-.47-.75-1.78-.75a1.62,1.62,0,0,0-1.75,1.66c0,.81.37,1.33,1.74,2.4l.39.32c1.68,1.33,2.08,2.21,2.08,3.36a3,3,0,0,1-1.21,2.37,3.73,3.73,0,0,1-2.15.61A4.21,4.21,0,0,1,39.1,170.43Z"/><path class="cls-21" d="M54.22,166c0,2.06.46,3,1.07,3.53a2.78,2.78,0,0,0,2.15.79,3,3,0,0,0,2.23-1,5.54,5.54,0,0,0,.83-3.51V164c0-2.24,0-2.64,0-3.1s-.14-.71-.61-.81a2.52,2.52,0,0,0-.48,0c-.06,0-.12,0-.12-.09s.07-.11.23-.11c.64,0,1.42,0,1.51,0s.77,0,1.19,0c.16,0,.23,0,.23.11a.1.1,0,0,1-.11.09,1.94,1.94,0,0,0-.36,0c-.38.09-.5.31-.52.81s0,.86,0,3.1v1.53c0,1.54-.17,3.26-1.31,4.28a4.19,4.19,0,0,1-2.93,1.06,4.37,4.37,0,0,1-2.94-1c-.69-.67-1.23-1.67-1.23-3.76V164c0-2.24,0-2.64,0-3.1s-.15-.71-.61-.81a2.63,2.63,0,0,0-.49,0c-.06,0-.11,0-.11-.09s.07-.11.22-.11c.65,0,1.51,0,1.64,0s1,0,1.41,0c.16,0,.23,0,.23.11s-.06.09-.12.09a1.85,1.85,0,0,0-.35,0c-.39.06-.5.31-.53.81s0,.86,0,3.1Z"/><path class="cls-22" d="M72.45,164.86c.45-.43,2.38-2.47,3.25-3.38s.91-1,.91-1.2a.29.29,0,0,0-.19-.27c-.1,0-.12-.07-.12-.13s.08-.08.21-.08c.41,0,.37,0,.85,0s1.29,0,1.51,0,.24,0,.24.1,0,.08-.15.1a2.53,2.53,0,0,0-.73.17,4.45,4.45,0,0,0-1.48,1.14c-1.25,1.22-2.87,2.84-3.24,3.25.89,1,3.48,3.64,4.15,4.27,1.17,1.1,1.67,1.41,2.35,1.54a1.84,1.84,0,0,0,.41,0c.12,0,.2,0,.2.09s-.05.1-.21.1h-1a2.8,2.8,0,0,1-2.24-.68A56.1,56.1,0,0,1,72.45,165v1.48c0,1.37,0,2.5.08,3.1,0,.42.12.73.55.79l.57.06c.13,0,.17.05.17.09s-.06.1-.21.1c-.79,0-1.68,0-1.75,0s-.92,0-1.34,0c-.16,0-.23,0-.23-.1s0-.09.16-.09a2,2,0,0,0,.37,0c.28-.06.37-.38.42-.8.07-.6.07-1.73.07-3.1V164c0-2.24,0-2.64,0-3.1s-.17-.72-.49-.8a2.5,2.5,0,0,0-.51-.05c-.11,0-.16,0-.16-.09s.08-.11.23-.11c.47,0,1.42,0,1.5,0s1,0,1.39,0c.16,0,.23,0,.23.1s0,.08-.16.1L73,160c-.39,0-.5.32-.53.82s0,.86,0,3.1Z"/><path class="cls-23" d="M95.32,164.33c.05,0,.09,0,.09-.08V164c0-2.24,0-2.64,0-3.1s-.14-.71-.61-.81a2.56,2.56,0,0,0-.49,0,.1.1,0,0,1-.11-.09c0-.09.07-.11.23-.11.64,0,1.54,0,1.61,0s1,0,1.39,0c.16,0,.23,0,.23.11a.1.1,0,0,1-.11.09,1.94,1.94,0,0,0-.36,0c-.38.07-.5.31-.53.81s0,.86,0,3.1v2.52c0,1.37,0,2.5.08,3.1,0,.42.12.73.55.79a5.86,5.86,0,0,0,.64.06c.09,0,.11,0,.11.08s-.07.11-.22.11c-.79,0-1.68,0-1.75,0s-1,0-1.4,0c-.15,0-.23,0-.23-.11s0-.08.12-.08a2.12,2.12,0,0,0,.43-.06c.28-.06.35-.37.41-.79.07-.6.07-1.73.07-3.1V165a.08.08,0,0,0-.09-.08h-6s-.09,0-.09.08v1.51c0,1.37,0,2.5.08,3.1,0,.42.12.73.55.79a5.86,5.86,0,0,0,.64.06c.09,0,.11,0,.11.08s-.07.11-.22.11c-.79,0-1.68,0-1.75,0s-1,0-1.4,0c-.16,0-.23,0-.23-.11s0-.08.12-.08a1.93,1.93,0,0,0,.42-.06c.29-.06.36-.37.42-.79.07-.6.07-1.73.07-3.1V164c0-2.24,0-2.64,0-3.1s-.14-.71-.61-.81a2.63,2.63,0,0,0-.49,0,.1.1,0,0,1-.11-.09c0-.09.07-.11.23-.11.64,0,1.53,0,1.61,0s1,0,1.39,0c.16,0,.23,0,.23.11s-.06.09-.12.09a1.85,1.85,0,0,0-.35,0c-.38.07-.5.31-.53.81s0,.86,0,3.1v.3c0,.07,0,.08.09.08Z"/><path class="cls-24" d="M107.6,166c0,2.06.46,3,1.07,3.53a2.78,2.78,0,0,0,2.15.79,3,3,0,0,0,2.24-1,5.6,5.6,0,0,0,.82-3.51V164c0-2.24,0-2.64,0-3.1s-.14-.71-.61-.81a2.52,2.52,0,0,0-.48,0c-.06,0-.12,0-.12-.09s.07-.11.23-.11c.64,0,1.42,0,1.51,0s.77,0,1.19,0c.16,0,.23,0,.23.11s0,.09-.11.09a1.94,1.94,0,0,0-.36,0c-.38.09-.5.31-.52.81s0,.86,0,3.1v1.53c0,1.54-.17,3.26-1.31,4.28a4.19,4.19,0,0,1-2.93,1.06,4.38,4.38,0,0,1-2.94-1c-.69-.67-1.23-1.67-1.23-3.76V164c0-2.24,0-2.64,0-3.1s-.14-.71-.61-.81a2.63,2.63,0,0,0-.49,0,.1.1,0,0,1-.11-.09c0-.09.07-.11.23-.11.64,0,1.5,0,1.63,0s1,0,1.41,0c.16,0,.23,0,.23.11a.1.1,0,0,1-.11.09,1.94,1.94,0,0,0-.36,0c-.38.06-.5.31-.53.81s0,.86,0,3.1Z"/><path class="cls-25" d="M135.1,168.77c.06.51.16,1.32.77,1.52a2.81,2.81,0,0,0,.88.13c.07,0,.16,0,.16.08s0,.11-.22.11-1.93,0-2.46-.08c-.33,0-.4-.07-.4-.14s0-.08.1-.1.09-.26.06-.52l-.68-7.47-3.53,7.53c-.3.63-.34.76-.47.76s-.17-.15-.44-.66c-.37-.7-1.6-3.18-1.67-3.32s-1.76-3.79-1.92-4.18l-.58,6.74c0,.23,0,.43,0,.67a.45.45,0,0,0,.38.52,2,2,0,0,0,.51.06c.09,0,.15,0,.15.07s-.07.12-.22.12c-.52,0-1.25,0-1.36,0s-.81,0-1.2,0c-.14,0-.24,0-.24-.11s.07-.08.14-.08a1.56,1.56,0,0,0,.43,0c.47-.08.5-.6.57-1.19l1-9.3c0-.15.07-.28.16-.28s.14.05.21.21l4.36,9,4.18-9c.06-.12.12-.22.22-.22s.14.11.17.38Z"/><path class="cls-26" d="M143.71,161.16c-.31-.81-.53-1-1-1.11a2.46,2.46,0,0,0-.54-.05.1.1,0,0,1-.11-.1c0-.09.14-.1.37-.1.68,0,1.45,0,1.62,0s.76,0,1.3,0c.25,0,.38,0,.38.1s0,.1-.14.1a1.57,1.57,0,0,0-.54.07.28.28,0,0,0-.19.28,4.11,4.11,0,0,0,.29.92l2.9,7.6c.83-1.92,2.73-6.91,3-7.94a2.12,2.12,0,0,0,.12-.55.37.37,0,0,0-.18-.33,2.05,2.05,0,0,0-.54-.05c-.09,0-.16,0-.16-.09s.09-.11.31-.11c.57,0,1.23,0,1.4,0s.7,0,1.11,0c.16,0,.24,0,.24.1s-.06.1-.17.1a1.29,1.29,0,0,0-.68.17c-.19.13-.4.37-.78,1.34-.16.4-.87,2.12-1.6,3.88-.87,2.09-1.51,3.64-1.83,4.34-.4.86-.46,1.09-.6,1.09s-.24-.21-.51-.89Z"/><path class="cls-27" d="M161.17,164c0-2.24,0-2.64,0-3.1s-.17-.72-.48-.8a2,2,0,0,0-.44-.05c-.06,0-.12,0-.12-.09s.07-.11.23-.11c.47,0,1.37,0,1.44,0s1,0,1.39,0c.16,0,.23,0,.23.11a.1.1,0,0,1-.11.09,1.94,1.94,0,0,0-.36,0c-.38.07-.5.31-.53.81s0,.86,0,3.1v2.52c0,1.37,0,2.5.07,3.1,0,.42.12.73.55.79l.59.06c.12,0,.17,0,.17.08s-.06.11-.22.11c-.78,0-1.69,0-1.76,0s-1,0-1.4,0c-.15,0-.22,0-.22-.11s0-.08.15-.08a1.9,1.9,0,0,0,.37,0c.29-.06.37-.38.43-.8.07-.6.07-1.73.07-3.1Z"/><path class="cls-28" d="M176.16,166.47c0,1.37,0,2.5.07,3.1,0,.42.13.73.55.79a5.86,5.86,0,0,0,.64.06c.09,0,.12,0,.12.08s-.07.11-.23.11c-.78,0-1.68,0-1.75,0s-1,0-1.4,0c-.15,0-.22,0-.22-.11s0-.08.11-.08a2.12,2.12,0,0,0,.43-.06c.28-.06.35-.37.41-.79.07-.6.07-1.73.07-3.1v-6.06c-.7,0-1.41,0-2.11,0-.88,0-1.22.11-1.45.46a2.65,2.65,0,0,0-.24.44c0,.12-.09.14-.14.14s-.07,0-.07-.12.28-1.38.31-1.49.08-.27.14-.27a2.72,2.72,0,0,0,.63.17c.41,0,.95.07,1.12.07h5.34a6.05,6.05,0,0,0,1-.07c.21,0,.34-.07.4-.07s.07.08.07.17c0,.43,0,1.41,0,1.57s-.05.19-.1.19-.1,0-.12-.25c0,0,0-.1,0-.15,0-.43-.39-.76-1.75-.79-.6,0-1.2,0-1.79,0Z"/></g></svg>