<svg xmlns="http://www.w3.org/2000/svg" viewBox="0 0 281.01 257.94"><defs><style>.cls-1{fill:#231f20;}.cls-2{fill:#f48020;}</style></defs><g id="Our_Project" data-name="Our Project"><path class="cls-1" d="M38.65,103.74H31.49v-2.59H48.93v2.59h-7.2v21H38.65Z"/><path class="cls-1" d="M54.58,101.15V111H66v-9.86h3.07v23.56H66v-11H54.58v11H51.51V101.15Z"/><path class="cls-1" d="M86.49,113.66H77.37v8.49H87.58v2.56H74.3V101.15H87.05v2.55H77.37v7.45h9.12Z"/><path class="cls-1" d="M102,101.15v14c0,5.24,2.35,7.48,5.49,7.48,3.46,0,5.74-2.31,5.74-7.48v-14h3.07v13.77c0,7.23-3.81,10.17-8.91,10.17-4.83,0-8.46-2.73-8.46-10.07V101.15Z"/><path class="cls-1" d="M121.55,124.71V101.15h3.35l7.52,11.92a64.93,64.93,0,0,1,4.19,7.65l.11,0c-.28-3.15-.35-6-.35-9.65v-9.89h2.86v23.56h-3.07l-7.48-12a68.54,68.54,0,0,1-4.38-7.86l-.1,0c.18,3,.21,5.8.21,9.71v10.07Z"/><path class="cls-1" d="M147.58,101.15v23.56h-3.07V101.15Z"/><path class="cls-1" d="M172.33,128.16c-3.19-.83-6.29-1.78-9-2.72a4.58,4.58,0,0,0-1.43-.35c-5.63-.21-10.38-4.33-10.38-11.92s4.58-12.4,10.94-12.4,10.58,5,10.58,11.91c0,6-2.79,9.89-6.71,11.29v.14c2.35.6,4.9,1.15,6.89,1.5Zm-10.07-5.55c4.82,0,7.55-4.44,7.55-9.79,0-4.71-2.45-9.57-7.44-9.57-5.14,0-7.66,4.75-7.66,9.85s2.73,9.51,7.52,9.51Z"/><path class="cls-1" d="M180,101.15v14c0,5.24,2.35,7.48,5.49,7.48,3.47,0,5.74-2.31,5.74-7.48v-14h3.07v13.77c0,7.23-3.81,10.17-8.91,10.17-4.83,0-8.46-2.73-8.46-10.07V101.15Z"/><path class="cls-1" d="M211.75,113.66h-9.12v8.49h10.2v2.56H199.55V101.15h12.76v2.55h-9.68v7.45h9.12Z"/><path class="cls-1" d="M37.61,139.39V134.6h2.12a3,3,0,0,1,.84.09,1.12,1.12,0,0,1,.66.5,1.34,1.34,0,0,1,.2.72c0,.74-.45,1.18-1.35,1.3a1.7,1.7,0,0,1,.38.23,3.41,3.41,0,0,1,.53.64l.84,1.31H41l-.63-1c-.15-.22-.26-.4-.36-.52a1.78,1.78,0,0,0-.42-.46,1,1,0,0,0-.29-.13l-.35,0h-.74v2.13Zm.63-2.68H39.6c.54,0,.89-.13,1-.38a.72.72,0,0,0,.13-.42q0-.78-1-.78H38.24Z"/><path class="cls-1" d="M51.69,139.39l1.84-4.79h.68l2,4.79h-.72l-.56-1.46h-2l-.53,1.46Zm1.39-2H54.7l-.5-1.32a9.1,9.1,0,0,1-.34-1,6.39,6.39,0,0,1-.25.91Z"/><path class="cls-1" d="M67.69,139.39v-4.22H66.12v-.57h3.79v.57H68.33v4.22Z"/><path class="cls-1" d="M83.77,137.71l.63.16a2.21,2.21,0,0,1-.69,1.17,2.2,2.2,0,0,1-3.28-.8,3.27,3.27,0,0,1-.26-1.29,2.24,2.24,0,0,1,1.1-2.14,2.4,2.4,0,0,1,1.16-.29,2,2,0,0,1,1.2.36,1.86,1.86,0,0,1,.69,1l-.62.15a1.27,1.27,0,0,0-1.28-1A1.37,1.37,0,0,0,81,136a2.8,2.8,0,0,0-.15.91,1.88,1.88,0,0,0,.73,1.75,1.65,1.65,0,0,0,.82.22A1.33,1.33,0,0,0,83.77,137.71Z"/><path class="cls-1" d="M95,139.39V134.6h.63v2h2.49v-2h.63v4.79h-.63v-2.26H95.63v2.26Z"/><path class="cls-1" d="M109.6,139.39V134.6h1.66a4.3,4.3,0,0,1,.84.07,1.73,1.73,0,0,1,1.27,1.16,3.1,3.1,0,0,1,.19,1.14,2.79,2.79,0,0,1-.45,1.66,1.71,1.71,0,0,1-1,.67,3,3,0,0,1-.77.09Zm.64-.58h1a1.64,1.64,0,0,0,1.17-.33,2.09,2.09,0,0,0,.48-1.53c0-.9-.29-1.46-.84-1.68a2.44,2.44,0,0,0-.83-.1h-1Z"/><path class="cls-1" d="M123.7,139.39l1.84-4.79h.68l2,4.79h-.72l-.56-1.46h-2l-.53,1.46Zm1.39-2h1.61l-.5-1.32c-.15-.4-.26-.73-.34-1a5.3,5.3,0,0,1-.25.91Z"/><path class="cls-1" d="M138.48,139.39V134.6h1.8a4.44,4.44,0,0,1,.73.05,1.23,1.23,0,0,1,1,.68,1.44,1.44,0,0,1,.15.65c0,1-.6,1.46-1.79,1.46h-1.22v1.95Zm.64-2.52h1.23c.76,0,1.13-.29,1.13-.86a.84.84,0,0,0-.14-.5.67.67,0,0,0-.41-.3,2.58,2.58,0,0,0-.59,0h-1.22Z"/><path class="cls-1" d="M152.76,139.39V134.6h.63v2h2.48v-2h.64v4.79h-.64v-2.26h-2.48v2.26Z"/><path class="cls-1" d="M167.47,139.39V134.6h.63v4.79Z"/><path class="cls-1" d="M178.8,137.85l.59-.06a1.11,1.11,0,0,0,.68,1,1.78,1.78,0,0,0,.74.14,1.2,1.2,0,0,0,1.05-.4.61.61,0,0,0,.14-.4.73.73,0,0,0-.56-.68,7.05,7.05,0,0,0-.9-.24,3.89,3.89,0,0,1-.88-.29,1.16,1.16,0,0,1-.46-1.74,1.29,1.29,0,0,1,.59-.46,2.23,2.23,0,0,1,.88-.16,1.73,1.73,0,0,1,1.56.67,1.54,1.54,0,0,1,.23.76l-.6.05c-.07-.61-.46-.92-1.17-.92a1.68,1.68,0,0,0-.72.14.6.6,0,0,0-.38.58.59.59,0,0,0,.41.55,4.94,4.94,0,0,0,.73.21,5.47,5.47,0,0,1,1.06.3,1.24,1.24,0,0,1,.82,1.17,1.29,1.29,0,0,1-.24.75,1.51,1.51,0,0,1-.61.5,2.26,2.26,0,0,1-.92.19,2,2,0,0,1-1.78-.76A1.61,1.61,0,0,1,178.8,137.85Z"/><path class="cls-1" d="M193.28,139.39V134.6h3.46v.57h-2.82v1.46h2.64v.56h-2.64v1.62h2.93v.58Z"/><path class="cls-1" d="M207.5,139.39V134.6h.63V137l2.37-2.37h.86l-2,1.94,2.1,2.85h-.84l-1.7-2.43-.78.76v1.67Z"/><polygon class="cls-2" points="228.23 100.23 228.23 103.64 228.23 103.64 228.23 120.17 228.23 123.58 232.53 123.58 236.92 123.58 236.92 120.17 232.53 120.17 232.53 103.64 238.3 103.64 238.3 135.44 224.37 135.44 224.37 103.64 224.37 102.08 224.37 100.23 216.36 100.23 216.36 103.64 220.07 103.64 220.07 138.85 220.36 138.85 224.37 138.85 238.3 138.85 242.31 138.85 242.61 138.85 242.61 103.64 242.61 102.08 242.61 100.23 228.23 100.23"/></g></svg>