<svg xmlns="http://www.w3.org/2000/svg" xmlns:xlink="http://www.w3.org/1999/xlink" viewBox="0 0 281.01 257.94"><defs><style>.cls-1{fill:none;}.cls-2{fill:#30302f;}.cls-3{clip-path:url(#clip-path);}.cls-4{fill:url(#linear-gradient);}</style><clipPath id="clip-path"><path id="SVGID" class="cls-1" d="M143.93,73.6h-26.5v.83h4.45V112l.69-.59a27.13,27.13,0,0,1,3.94-2.79l.21-.12v-34h17.2a14.51,14.51,0,0,1-.52,29h-1.83v.84h3.89c10.25,1.27,18.11,12.27,18.11,25.73,0,14.26-9,25.87-20.08,25.87H143c-10.89,0-19.75-10.64-19.75-23.73,0-12.86,8.37-23.28,19.06-23.72l0-.38a30.26,30.26,0,0,0-19.39,7.24,22.33,22.33,0,0,0-8,16.86c0,13.3,12.61,24.12,28.11,24.12h.47c15.77,0,28.6-11.78,28.6-26.26a25,25,0,0,0-8.15-18.35A29.4,29.4,0,0,0,147.4,104c9.91-1.35,17.43-7.6,17.43-15.08,0-8.4-9.18-15.14-20.89-15.34Z"/></clipPath><linearGradient id="linear-gradient" x1="2693.91" y1="-1686.02" x2="2694.8" y2="-1686.02" gradientTransform="translate(-297170.74 186162.72) scale(110.35)" gradientUnits="userSpaceOnUse"><stop offset="0" stop-color="#997664"/><stop offset="0.11" stop-color="#b18d79"/><stop offset="0.36" stop-color="#e3bda6"/><stop offset="0.49" stop-color="#f7d0b8"/><stop offset="0.58" stop-color="#edc6af"/><stop offset="0.74" stop-color="#d1ac96"/><stop offset="0.95" stop-color="#a4816e"/><stop offset="1" stop-color="#997664"/></linearGradient></defs><g id="Our_Project" data-name="Our Project"><path class="cls-2" d="M64.84,182.72a3.12,3.12,0,0,1-.48.84,3.39,3.39,0,0,1-.65.61,2.79,2.79,0,0,1-.72.38,4.64,4.64,0,0,1-1.39.28c-.51,0-1,0-1.49,0H54.47v-.16a4.1,4.1,0,0,0,.78-.22,1.58,1.58,0,0,0,.6-.4,1,1,0,0,0,.13-.29c0-.13.06-.27.09-.43s0-.34,0-.52,0-.36,0-.53,0-.36,0-.62,0-.55,0-.86,0-.63,0-.95v-2.54c0-.24,0-.48,0-.73v-.87c0-.2,0-.4,0-.6a5.42,5.42,0,0,0-.06-.58c0-.18-.06-.35-.1-.5a.64.64,0,0,0-.15-.31,1.28,1.28,0,0,0-.49-.36,3.58,3.58,0,0,0-.69-.14v-.16h5.51a11.37,11.37,0,0,1,1.19.07,5,5,0,0,1,1.08.27,3.32,3.32,0,0,1,1.38,1,2.49,2.49,0,0,1,.53,1.62,2.3,2.3,0,0,1-.69,1.74,3.6,3.6,0,0,1-1.81.89v.07A4.68,4.68,0,0,1,63,179a3.62,3.62,0,0,1,1,.6,2.94,2.94,0,0,1,.72.89,2.49,2.49,0,0,1,.26,1.17,3.18,3.18,0,0,1-.17,1.06m-2.79-8.15a2.46,2.46,0,0,0-1-.92,4.62,4.62,0,0,0-1.88-.33,5.54,5.54,0,0,0-.62,0,2.38,2.38,0,0,0-.43.08l0,.18a1,1,0,0,0,0,.2c0,.08,0,.19,0,.3s0,.28,0,.48q0,.57,0,1.26c0,.45,0,.89,0,1.31v1.56h1.52a3.29,3.29,0,0,0,2.23-.84,2.5,2.5,0,0,0,.76-1.86,2.56,2.56,0,0,0-.41-1.45M63,181a3.23,3.23,0,0,0-.43-.77,2.82,2.82,0,0,0-.64-.6,2.86,2.86,0,0,0-.8-.4,3.72,3.72,0,0,0-.72-.16,6.61,6.61,0,0,0-.82,0H58v2c0,.31,0,.59,0,.84s0,.48,0,.67q0,.61.06,1a1.21,1.21,0,0,0,.23.66,1.11,1.11,0,0,0,.45.3,2.29,2.29,0,0,0,.85.13,9.72,9.72,0,0,0,1-.07,3,3,0,0,0,1.08-.34,2.7,2.7,0,0,0,1.07-1,2.63,2.63,0,0,0,.37-1.43A2.6,2.6,0,0,0,63,181"/><path class="cls-2" d="M216.68,179.58a.88.88,0,0,0-.47.33,1.12,1.12,0,0,0-.13.56c0,.25,0,.5,0,.75v2.39a3.55,3.55,0,0,1-.56.32,9.3,9.3,0,0,1-1.1.47,9.78,9.78,0,0,1-1.43.4,7.51,7.51,0,0,1-1.56.16,8.8,8.8,0,0,1-2.78-.4,5.4,5.4,0,0,1-2.07-1.18,5.05,5.05,0,0,1-1.29-1.89,6.68,6.68,0,0,1-.45-2.51,5.58,5.58,0,0,1,.08-.94,5.79,5.79,0,0,1,.29-1.12,5.6,5.6,0,0,1,.57-1.19,5.47,5.47,0,0,1,.92-1.15,5.92,5.92,0,0,1,1.93-1.23,7.38,7.38,0,0,1,2.78-.47,8.11,8.11,0,0,1,1.73.17,9,9,0,0,1,1.27.38,4.91,4.91,0,0,1,.79.38,2.32,2.32,0,0,0,.31.17s.08-.07.18-.2l.36-.47h.15v3.56H216a5.73,5.73,0,0,0-.54-1.39,5.16,5.16,0,0,0-.77-1.08,3.76,3.76,0,0,0-1.34-.9,4.81,4.81,0,0,0-1.83-.34,3.93,3.93,0,0,0-1.94.48,4.54,4.54,0,0,0-1.47,1.29,5.75,5.75,0,0,0-.93,1.87,7.34,7.34,0,0,0-.33,2.21,8.11,8.11,0,0,0,.31,2.33,5.48,5.48,0,0,0,.9,1.81,4.09,4.09,0,0,0,1.44,1.17,4.43,4.43,0,0,0,1.94.41,3.91,3.91,0,0,0,1.46-.27,2.19,2.19,0,0,0,1.07-.87,1.86,1.86,0,0,0,.2-.75,10,10,0,0,0,.07-1.11,7.83,7.83,0,0,0-.06-1,1.3,1.3,0,0,0-.34-.76,1.93,1.93,0,0,0-1.32-.5v-.17h4.79v.17a3.11,3.11,0,0,0-.61.14"/><path class="cls-2" d="M230.37,184.88h-10v-.16a3.38,3.38,0,0,0,.76-.22,1.44,1.44,0,0,0,.58-.4.71.71,0,0,0,.13-.29,2.31,2.31,0,0,0,.09-.43,4.35,4.35,0,0,0,.06-.52c0-.18,0-.36,0-.53s0-.36,0-.62,0-.55,0-.86,0-.63,0-1v-4.13c0-.2,0-.4,0-.61a5.35,5.35,0,0,0,0-.58,3.08,3.08,0,0,0-.08-.5.64.64,0,0,0-.16-.32,1.17,1.17,0,0,0-.52-.34c-.19,0-.43-.09-.72-.14v-.16h9l1.11,2.7-.16.08a7.94,7.94,0,0,0-2.48-2.22,3.68,3.68,0,0,0-1-.23,13.78,13.78,0,0,0-1.83-.1l-.72,0-.53.06c0,.18,0,.54,0,1.08s0,1.18,0,1.9v1c0,.29,0,.52,0,.7s0,.32,0,.41v.18h.89l.64,0a3.15,3.15,0,0,0,.53-.08,2.63,2.63,0,0,0,.81-.31,1.91,1.91,0,0,0,.54-.47,2.46,2.46,0,0,0,.32-.65,6.88,6.88,0,0,0,.22-.82h.2v5.15h-.2a5.1,5.1,0,0,0-.4-1.08,3.13,3.13,0,0,0-.56-.84,2.43,2.43,0,0,0-.63-.37,2.73,2.73,0,0,0-.86-.18l-.41,0h-1.08a5.47,5.47,0,0,0,0,.67v2c0,.17,0,.34,0,.5s0,.29,0,.4c0,.35,0,.67,0,1a1.54,1.54,0,0,0,.19.69,1.09,1.09,0,0,0,.71.33,7.5,7.5,0,0,0,1.21.1l.71,0c.29,0,.59,0,.9-.08a3.74,3.74,0,0,0,1-.26,3.23,3.23,0,0,0,.85-.53,5.85,5.85,0,0,0,.79-.84,10,10,0,0,0,.79-1.2l.18,0Z"/><path class="cls-2" d="M68.61,184.88v-.16a3.54,3.54,0,0,0,.76-.22,1.59,1.59,0,0,0,.6-.42.81.81,0,0,0,.12-.28,3.66,3.66,0,0,0,.07-.42l0-.52c0-.18,0-.36,0-.53v-.62c0-.26,0-.55,0-.86s0-.63,0-1v-4.72a4.68,4.68,0,0,0,0-.55,2.66,2.66,0,0,0-.07-.45.64.64,0,0,0-.15-.32,1.24,1.24,0,0,0-.56-.4,3.26,3.26,0,0,0-.76-.18v-.16h4.89v.16a6.08,6.08,0,0,0-.74.18,1.07,1.07,0,0,0-.6.53,1.57,1.57,0,0,0-.16.7c0,.28,0,.55,0,.8s0,.54,0,.81,0,.54,0,.81v5.48c0,.31,0,.62,0,.91a1.25,1.25,0,0,0,.14.62,1.2,1.2,0,0,0,.63.43,3.07,3.07,0,0,0,.76.18v.16Z"/><path class="cls-2" d="M87.23,182.72a2.88,2.88,0,0,1-.48.84,3.12,3.12,0,0,1-.65.61,2.79,2.79,0,0,1-.72.38,4.57,4.57,0,0,1-1.39.28c-.51,0-1,0-1.49,0H76.86v-.16a3.72,3.72,0,0,0,.78-.22,1.44,1.44,0,0,0,.6-.4.79.79,0,0,0,.13-.29c0-.13.06-.27.09-.43s0-.34.06-.52,0-.36,0-.53,0-.36,0-.62,0-.55,0-.86,0-.63,0-.95v-2.54c0-.24,0-.48,0-.73s0-.54,0-.87,0-.4,0-.6,0-.39,0-.58-.06-.35-.1-.5a.64.64,0,0,0-.16-.31,1.28,1.28,0,0,0-.49-.36,3.42,3.42,0,0,0-.69-.14v-.16h5.51a11.2,11.2,0,0,1,1.19.07,5.11,5.11,0,0,1,1.09.27,3.35,3.35,0,0,1,1.37,1,2.44,2.44,0,0,1,.54,1.62,2.27,2.27,0,0,1-.7,1.74,3.56,3.56,0,0,1-1.8.89v.07a4.79,4.79,0,0,1,1.16.28,3.71,3.71,0,0,1,1,.6,2.94,2.94,0,0,1,.72.89,2.49,2.49,0,0,1,.27,1.17,3,3,0,0,1-.18,1.06m-2.79-8.15a2.41,2.41,0,0,0-1-.92,4.59,4.59,0,0,0-1.88-.33,5.87,5.87,0,0,0-.62,0,2.42,2.42,0,0,0-.42.08l0,.18a.94.94,0,0,0,0,.2c0,.08,0,.19,0,.3s0,.28,0,.48c0,.38,0,.8,0,1.26s0,.89,0,1.31v1.56h1.52a3.31,3.31,0,0,0,2.23-.84,2.53,2.53,0,0,0,.76-1.86,2.57,2.57,0,0,0-.42-1.45m.9,6.38a2.66,2.66,0,0,0-.43-.77,2.77,2.77,0,0,0-.63-.6,3.06,3.06,0,0,0-.81-.4,3.8,3.8,0,0,0-.71-.16,6.78,6.78,0,0,0-.83,0H80.35v2c0,.31,0,.59,0,.84v.67q0,.61.06,1a1.3,1.3,0,0,0,.24.66,1.07,1.07,0,0,0,.44.3,2.33,2.33,0,0,0,.85.13,9.9,9.9,0,0,0,1-.07,3.09,3.09,0,0,0,1.08-.34,2.74,2.74,0,0,0,1.06-1,2.63,2.63,0,0,0,.38-1.43,2.6,2.6,0,0,0-.16-.89"/><path class="cls-2" d="M102.76,173.59a1.45,1.45,0,0,0-.54.7,1.09,1.09,0,0,0-.09.37c0,.18,0,.38-.08.61s0,.47,0,.73,0,.51,0,.76c0,.46,0,1,0,1.57s0,1.23-.06,2c0,.2,0,.47,0,.78a5.55,5.55,0,0,1-.16,1,4.21,4.21,0,0,1-.41,1.06,3.17,3.17,0,0,1-.81,1,3.93,3.93,0,0,1-1.34.69,6.89,6.89,0,0,1-2,.25,7.08,7.08,0,0,1-2-.24,4,4,0,0,1-1.33-.66,3.29,3.29,0,0,1-.81-.92,4.32,4.32,0,0,1-.42-1,3.88,3.88,0,0,1-.17-.88c0-.27,0-.47,0-.6,0-.3,0-.7,0-1.19v-4.4a4.79,4.79,0,0,0,0-.55,4.3,4.3,0,0,0-.07-.45.87.87,0,0,0-.15-.32,1.21,1.21,0,0,0-.57-.4,3.16,3.16,0,0,0-.76-.17v-.17H95.7v.17l-.49.09a1.49,1.49,0,0,0-.48.21,1.2,1.2,0,0,0-.36.38,1.26,1.26,0,0,0-.16.62q0,.43,0,.75c0,.22,0,.44,0,.64v3.25c0,.26,0,.5,0,.73s0,.48,0,.75a5.16,5.16,0,0,0,.26,1.57,3.48,3.48,0,0,0,.69,1.21,2.81,2.81,0,0,0,1.08.77,3.68,3.68,0,0,0,1.45.27,5.17,5.17,0,0,0,1.58-.21,3.11,3.11,0,0,0,1.08-.59,2.89,2.89,0,0,0,.69-.87,4.42,4.42,0,0,0,.37-1,8.46,8.46,0,0,0,.17-1.14c0-.39,0-.76,0-1.13v-2.78c0-.22,0-.44,0-.67l0-.66a5.22,5.22,0,0,0,0-.58,1.88,1.88,0,0,0-.09-.43,1.49,1.49,0,0,0-.57-.74,2.55,2.55,0,0,0-1.18-.4v-.17h4v.17a2.22,2.22,0,0,0-1,.31"/><path class="cls-2" d="M115.41,184.88l-.21-.22-.15-.17c-.06-.07-.12-.16-.21-.29l-.38-.56-.55-.83-.48-.73c-.16-.23-.34-.48-.53-.72s-.42-.52-.68-.83a6.71,6.71,0,0,0-.71-.7,1.83,1.83,0,0,0-.81-.41,2.7,2.7,0,0,0-.47-.06l-.38,0v1.85c0,.52,0,1,0,1.32s0,.65,0,.9a1.16,1.16,0,0,0,.18.62,1.43,1.43,0,0,0,.51.43,2.23,2.23,0,0,0,1,.26v.16H106.4v-.16a5.08,5.08,0,0,0,.79-.2,1.39,1.39,0,0,0,.59-.39,1.07,1.07,0,0,0,.13-.3,4.08,4.08,0,0,0,.07-.44c0-.16,0-.33,0-.52s0-.36,0-.54v-.62c0-.26,0-.55,0-.86s0-.63,0-1v-4.13c0-.2,0-.4,0-.6s0-.39,0-.57,0-.34-.08-.49a.68.68,0,0,0-.16-.32,1.21,1.21,0,0,0-.55-.35,6.59,6.59,0,0,0-.74-.16v-.16H111c.73,0,1.38,0,1.94.06a3.86,3.86,0,0,1,1.56.44,3.18,3.18,0,0,1,1.16,1,2.87,2.87,0,0,1,.44,1.63,2.72,2.72,0,0,1-.22,1.09,3.16,3.16,0,0,1-.59.85,4,4,0,0,1-.86.63,7.25,7.25,0,0,1-1,.44v.05a1.88,1.88,0,0,1,.54.42,6.49,6.49,0,0,1,.51.62c.28.42.59.86.92,1.34l.89,1.28a5.06,5.06,0,0,0,1.18,1.24,3.23,3.23,0,0,0,1.34.51v.16Zm-1.62-10.18a2.79,2.79,0,0,0-1.19-1,3.82,3.82,0,0,0-.83-.26,5.31,5.31,0,0,0-.91-.08l-.55,0-.33,0,0,.17c0,.05,0,.11,0,.19s0,.18,0,.32,0,.33,0,.58,0,.81,0,1.29,0,.94,0,1.39v1.8a12.18,12.18,0,0,0,1.25-.06,5.19,5.19,0,0,0,1.12-.24,2.91,2.91,0,0,0,.9-.44,2.43,2.43,0,0,0,.61-.63,2.39,2.39,0,0,0,.35-.76,3,3,0,0,0,.12-.85,2.64,2.64,0,0,0-.41-1.45"/><path class="cls-2" d="M130.4,173.5a2.51,2.51,0,0,0-.61.43,4.18,4.18,0,0,0-.53.62c-.17.24-.35.51-.55.82l-.54.84c-.24.35-.48.72-.72,1.1l-.71,1.1-.54.81v3.29c0,.32,0,.62,0,.92a1.24,1.24,0,0,0,.16.63,1.15,1.15,0,0,0,.63.48l.76.18v.16h-5v-.16a4.32,4.32,0,0,0,.74-.16,1.63,1.63,0,0,0,.68-.51.56.56,0,0,0,.13-.28c0-.13,0-.28.06-.44a4.45,4.45,0,0,0,0-.53c0-.18,0-.36,0-.54s0-.66,0-1.08v-1.53l-.19-.31-.4-.65c-.16-.25-.33-.54-.53-.85s-.37-.63-.56-.93l-.52-.84-.41-.64c-.21-.31-.4-.6-.56-.86a4.34,4.34,0,0,0-.52-.67,2.89,2.89,0,0,0-.51-.45,1.41,1.41,0,0,0-.59-.18v-.16h5v.16l-.49,0a2.82,2.82,0,0,0-.46.11.81.81,0,0,0-.34.2.42.42,0,0,0-.13.33,1.52,1.52,0,0,0,.23.65c.16.29.33.58.5.87l.43.71c.16.28.34.57.54.89l.59.95.57.93c.14-.2.31-.47.52-.79l.63-1,.6-1c.19-.3.34-.54.44-.72l.18-.3.18-.36a2.54,2.54,0,0,0,.16-.38,1.27,1.27,0,0,0,.07-.36.58.58,0,0,0-.14-.41.81.81,0,0,0-.33-.23,3,3,0,0,0-.45-.12l-.47-.08v-.16h3.77v.16a3.13,3.13,0,0,0-.78.23"/><path class="cls-2" d="M153.78,173.54a1.62,1.62,0,0,0-.37.26l-.14.15a1.86,1.86,0,0,0-.2.31c-.08.14-.17.31-.27.52s-.22.47-.35.78c-.22.53-.46,1.11-.72,1.76l-.8,2q-.42,1-.81,2.07l-.76,2-.8,1.63h-.2c-.36-.88-.69-1.72-1-2.52s-.62-1.57-.91-2.31-.58-1.46-.85-2.15-.55-1.39-.82-2.09l-.21-.54-.19-.42-.18-.38-.19-.37a2.35,2.35,0,0,0-.14-.25,1.79,1.79,0,0,0-.27-.29,1.56,1.56,0,0,0-1-.38v-.18h4.89v.17l-.3,0a2.35,2.35,0,0,0-.43.13,1.14,1.14,0,0,0-.39.25.52.52,0,0,0-.18.41,3.07,3.07,0,0,0,.18.69c.12.37.28.81.47,1.33s.41,1.08.65,1.7.47,1.22.71,1.81.45,1.15.66,1.66.37.93.49,1.26l.3-.75c.15-.38.33-.86.56-1.42s.47-1.21.74-1.93.56-1.47.85-2.26a11.86,11.86,0,0,0,.43-1.36,4.09,4.09,0,0,0,.09-.65.56.56,0,0,0-.16-.41,1.33,1.33,0,0,0-.41-.27,2.76,2.76,0,0,0-.51-.16,3.2,3.2,0,0,0-.49-.07v-.17h3.81v.18a1.76,1.76,0,0,0-.74.25"/><path class="cls-2" d="M156.55,184.88v-.16a3.54,3.54,0,0,0,.76-.22,1.67,1.67,0,0,0,.6-.42.81.81,0,0,0,.12-.28,2.35,2.35,0,0,0,.06-.42c0-.17,0-.34,0-.52v-.53c0-.15,0-.36,0-.62s0-.55,0-.86,0-.63,0-1v-4.72a4.68,4.68,0,0,0,0-.55,2.66,2.66,0,0,0-.07-.45.64.64,0,0,0-.15-.32,1.24,1.24,0,0,0-.56-.4,3.26,3.26,0,0,0-.76-.18v-.16h4.89v.16a6.08,6.08,0,0,0-.74.18,1.07,1.07,0,0,0-.6.53,1.45,1.45,0,0,0-.16.7c0,.28,0,.55,0,.8s0,.54,0,.81,0,.54,0,.81v5.48c0,.31,0,.62,0,.91a1.25,1.25,0,0,0,.14.62,1.21,1.21,0,0,0,.62.43,3.24,3.24,0,0,0,.77.18v.16Z"/><path class="cls-2" d="M175.22,184.88h-10.5v-.16a4.88,4.88,0,0,0,.81-.22,1.43,1.43,0,0,0,.63-.4,1.12,1.12,0,0,0,.14-.29,2.31,2.31,0,0,0,.09-.43l.06-.52c0-.18,0-.36,0-.53s0-.36,0-.62,0-.55,0-.86V175.2a4.7,4.7,0,0,0,0-.54,4.3,4.3,0,0,0-.07-.45.9.9,0,0,0-.15-.31,1.44,1.44,0,0,0-.61-.43,3.69,3.69,0,0,0-.81-.2v-.16h5.21v.16l-.51.1a2.6,2.6,0,0,0-.55.21,1.29,1.29,0,0,0-.45.42,1.27,1.27,0,0,0-.21.71c0,.38,0,.73,0,1s0,.63,0,.93v4.8c0,.3,0,.63,0,1s0,.68,0,1a1.58,1.58,0,0,0,.17.7.78.78,0,0,0,.27.17,3,3,0,0,0,.47.14,5.06,5.06,0,0,0,.6.09,4.89,4.89,0,0,0,.66,0h.41l.63,0c.23,0,.47,0,.71-.07a4.34,4.34,0,0,0,.63-.13,3.35,3.35,0,0,0,1.84-1.15,4.53,4.53,0,0,0,.52-.84c.14-.3.28-.61.41-.94l.16,0Z"/><path class="cls-2" d="M188.64,184.88h-10.5v-.16a4.88,4.88,0,0,0,.81-.22,1.43,1.43,0,0,0,.63-.4,1.12,1.12,0,0,0,.14-.29,2.31,2.31,0,0,0,.09-.43l.06-.52c0-.18,0-.36,0-.53s0-.36,0-.62,0-.55,0-.86V175.2a4.7,4.7,0,0,0,0-.54,4.3,4.3,0,0,0-.07-.45.9.9,0,0,0-.15-.31,1.44,1.44,0,0,0-.61-.43,3.69,3.69,0,0,0-.81-.2v-.16h5.21v.16l-.51.1a2.6,2.6,0,0,0-.55.21,1.29,1.29,0,0,0-.45.42,1.36,1.36,0,0,0-.21.71c0,.38,0,.73,0,1s0,.63,0,.93v4.8c0,.3,0,.63,0,1s0,.68,0,1a1.58,1.58,0,0,0,.17.7.69.69,0,0,0,.27.17,3,3,0,0,0,.47.14,5.06,5.06,0,0,0,.6.09,4.89,4.89,0,0,0,.66,0h.42l.62,0c.23,0,.47,0,.71-.07a4.34,4.34,0,0,0,.63-.13,3.35,3.35,0,0,0,1.84-1.15,4.53,4.53,0,0,0,.52-.84c.14-.3.28-.61.41-.94l.16,0Z"/><path class="cls-2" d="M198.26,184.88v-.16a1.12,1.12,0,0,0,.24,0,1.9,1.9,0,0,0,.39-.11,1,1,0,0,0,.36-.23.47.47,0,0,0,.16-.37,2.23,2.23,0,0,0-.09-.49c-.06-.22-.15-.49-.26-.81l-.37-1.08c-.14-.39-.3-.8-.46-1.22h-4.35l-.47,1.18-.46,1.14a4.06,4.06,0,0,0-.34,1.24.48.48,0,0,0,.13.35,1,1,0,0,0,.33.23,1.71,1.71,0,0,0,.44.13l.45.08v.16h-3.48v-.18a1.75,1.75,0,0,0,.73-.23,1.78,1.78,0,0,0,.35-.24,4.09,4.09,0,0,0,.38-.54q.26-.44.63-1.26c.23-.51.49-1.1.77-1.75s.58-1.33.88-2,.59-1.39.89-2.09.57-1.36.83-2l-.16-.36a2.73,2.73,0,0,0,.53-.31,3.13,3.13,0,0,0,.42-.38,3,3,0,0,0,.3-.37l.19-.3h.13l1,2.58c.31.81.6,1.59.88,2.34s.54,1.48.81,2.18.52,1.4.78,2.09a7.59,7.59,0,0,0,.34.84l.35.76.14.23a2.33,2.33,0,0,0,.31.34,2,2,0,0,0,.46.3,1.89,1.89,0,0,0,.66.14v.2ZM196.12,175c-.06.15-.16.37-.28.67s-.28.68-.47,1.12-.39.93-.61,1.48-.47,1.14-.73,1.79h4.07c-.19-.49-.37-1-.56-1.48s-.38-1-.56-1.41l-.49-1.24-.37-.93"/><path class="cls-2" d="M97,201.93l.54-.05a1.33,1.33,0,0,0,.18.53.92.92,0,0,0,.43.33,1.59,1.59,0,0,0,.66.13,1.42,1.42,0,0,0,.57-.1.83.83,0,0,0,.38-.26.63.63,0,0,0,.12-.37.55.55,0,0,0-.12-.35.92.92,0,0,0-.39-.26l-.76-.21a3.9,3.9,0,0,1-.83-.26,1.14,1.14,0,0,1-.46-.4,1,1,0,0,1-.15-.54,1.11,1.11,0,0,1,.18-.61,1.22,1.22,0,0,1,.54-.43,2.22,2.22,0,0,1,.79-.14,2.17,2.17,0,0,1,.84.15,1.23,1.23,0,0,1,.57.45,1.33,1.33,0,0,1,.21.68l-.55,0a.87.87,0,0,0-.3-.61,1.14,1.14,0,0,0-.75-.21,1.18,1.18,0,0,0-.75.19.57.57,0,0,0-.23.45.48.48,0,0,0,.16.38,2.2,2.2,0,0,0,.86.31,7.59,7.59,0,0,1,1,.27,1.43,1.43,0,0,1,.56.44,1.07,1.07,0,0,1,.18.61,1.18,1.18,0,0,1-.2.65,1.27,1.27,0,0,1-.57.47,2,2,0,0,1-.82.17,2.53,2.53,0,0,1-1-.17,1.35,1.35,0,0,1-.62-.51,1.49,1.49,0,0,1-.24-.77"/><path class="cls-2" d="M107.55,203.31V199h1.91a2.45,2.45,0,0,1,.87.12.91.91,0,0,1,.48.41,1.19,1.19,0,0,1,.18.64,1.06,1.06,0,0,1-.3.77,1.46,1.46,0,0,1-.91.4,1.82,1.82,0,0,1,.34.22,3.11,3.11,0,0,1,.47.57l.75,1.17h-.72l-.57-.9c-.16-.25-.3-.45-.41-.59a1.13,1.13,0,0,0-.29-.29.91.91,0,0,0-.25-.11l-.32,0h-.66v1.91Zm.57-2.4h1.22a2,2,0,0,0,.61-.08.69.69,0,0,0,.34-.26.77.77,0,0,0,.11-.39.63.63,0,0,0-.22-.5,1,1,0,0,0-.7-.19h-1.36Z"/><rect class="cls-2" x="118.31" y="199.01" width="0.57" height="4.3"/><polygon class="cls-2" points="126.22 203.31 126.22 199.01 126.8 199.01 129.06 202.38 129.06 199.01 129.6 199.01 129.6 203.31 129.02 203.31 126.76 199.93 126.76 203.31 126.22 203.31"/><path class="cls-2" d="M136.43,203.31l1.65-4.3h.61l1.76,4.3h-.65l-.5-1.3h-1.8l-.47,1.3Zm1.24-1.77h1.45l-.45-1.19c-.13-.36-.23-.66-.3-.89a5.87,5.87,0,0,1-.23.82Z"/><polygon class="cls-2" points="147.22 203.31 147.22 199.01 147.79 199.01 147.79 201.14 149.92 199.01 150.69 199.01 148.89 200.75 150.77 203.31 150.02 203.31 148.49 201.13 147.79 201.82 147.79 203.31 147.22 203.31"/><path class="cls-2" d="M157.11,203.31l1.65-4.3h.62l1.76,4.3h-.65L160,202h-1.8l-.47,1.3Zm1.24-1.77h1.46l-.45-1.19c-.13-.36-.24-.66-.3-.89a5.87,5.87,0,0,1-.23.82Z"/><path class="cls-2" d="M167.94,203.31V199h1.9a2.47,2.47,0,0,1,.88.12.85.85,0,0,1,.47.41,1.19,1.19,0,0,1,.18.64,1.1,1.1,0,0,1-.29.77,1.46,1.46,0,0,1-.92.4,2,2,0,0,1,.35.22,3.11,3.11,0,0,1,.47.57l.75,1.17H171l-.57-.9c-.16-.25-.3-.45-.41-.59a1.31,1.31,0,0,0-.29-.29.85.85,0,0,0-.26-.11l-.31,0h-.66v1.91Zm.57-2.4h1.22a2,2,0,0,0,.61-.08.63.63,0,0,0,.33-.26.69.69,0,0,0,.12-.39.67.67,0,0,0-.22-.5,1,1,0,0,0-.7-.19h-1.36Z"/><rect class="cls-2" x="178.7" y="199.01" width="0.57" height="4.3"/><polygon class="cls-2" points="186.61 203.31 186.61 199.01 187.19 199.01 189.45 202.38 189.45 199.01 189.99 199.01 189.99 203.31 189.41 203.31 187.15 199.93 187.15 203.31 186.61 203.31"/><g class="cls-3"><rect class="cls-4" x="94.62" y="65.06" width="97.75" height="99.75" transform="translate(-40.08 124.97) rotate(-41.82)"/></g></g></svg>