<svg xmlns="http://www.w3.org/2000/svg" viewBox="0 0 281.01 257.94"><defs><style>.cls-1{fill:#231f20;}.cls-2{fill:#f7991f;}</style></defs><g id="Our_Project" data-name="Our Project"><path class="cls-1" d="M58.86,122.32H52.7V120.1h15v2.22H61.5v18H58.86Z"/><path class="cls-1" d="M72.55,120.1v8.47h9.79V120.1H85v20.25H82.34v-9.5H72.55v9.5H69.91V120.1Z"/><path class="cls-1" d="M100,130.85H92.13v7.3h8.78v2.2H89.49V120.1h11v2.19H92.13v6.4H100Z"/><path class="cls-1" d="M113.28,120.1v12c0,4.5,2,6.42,4.72,6.42,3,0,4.92-2,4.92-6.42v-12h2.64v11.84c0,6.21-3.27,8.74-7.66,8.74-4.14,0-7.26-2.35-7.26-8.65V120.1Z"/><path class="cls-1" d="M130.1,140.35V120.1H133l6.46,10.24a55.18,55.18,0,0,1,3.6,6.58l.09,0c-.24-2.7-.29-5.16-.29-8.29v-8.5h2.46v20.25h-2.65l-6.42-10.28a57.47,57.47,0,0,1-3.76-6.75l-.09,0c.15,2.55.18,5,.18,8.34v8.66Z"/><path class="cls-1" d="M152.48,120.1v20.25h-2.65V120.1Z"/><path class="cls-1" d="M173.74,143.32c-2.73-.72-5.4-1.53-7.75-2.34a4.08,4.08,0,0,0-1.23-.3c-4.84-.18-8.92-3.73-8.92-10.25s3.93-10.66,9.4-10.66,9.1,4.27,9.1,10.24c0,5.2-2.4,8.5-5.76,9.7v.13c2,.51,4.2,1,5.91,1.29Zm-8.65-4.78c4.14,0,6.49-3.81,6.49-8.41,0-4-2.1-8.23-6.4-8.23s-6.58,4.09-6.58,8.47,2.35,8.17,6.46,8.17Z"/><path class="cls-1" d="M180.35,120.1v12c0,4.5,2,6.42,4.71,6.42,3,0,4.93-2,4.93-6.42v-12h2.64v11.84c0,6.21-3.27,8.74-7.66,8.74-4.14,0-7.26-2.35-7.26-8.65V120.1Z"/><path class="cls-1" d="M207.62,130.85h-7.84v7.3h8.77v2.2H197.14V120.1h11v2.19h-8.32v6.4h7.84Z"/><polygon class="cls-2" points="232.7 142.2 225.31 142.2 225.31 139.77 230.26 139.77 230.26 111.93 222.29 111.93 222.29 142.2 214.41 142.2 214.41 111.93 210.79 111.93 210.79 109.5 216.85 109.5 216.85 139.77 219.85 139.77 219.85 109.5 232.7 109.5 232.7 142.2 232.7 142.2"/></g></svg>