<svg xmlns="http://www.w3.org/2000/svg" viewBox="0 0 281.01 257.94"><defs><style>.cls-1{fill:#df8b83;}</style></defs><g id="Our_Project" data-name="Our Project"><path class="cls-1" d="M129.16,82.47H127l-.47,2.21h-1.79l-.25,1.15h1.78l-.76,3.34c-.09.39-.18.83-.28,1.31a7.08,7.08,0,0,0-.16,1.4,3,3,0,0,0,.52,1.73,1.89,1.89,0,0,0,1.65.78A2,2,0,0,0,128.5,94a2.89,2.89,0,0,0,.79-.91,6,6,0,0,0,.49-1.13l.3-1.09.11-.41h-1.26l-.06.24q-.08.28-.21.72a4.14,4.14,0,0,1-.33.82,2.71,2.71,0,0,1-.44.66.56.56,0,0,1-.41.2c-.25,0-.29-.09-.31-.12a1.33,1.33,0,0,1-.11-.54,2.75,2.75,0,0,1,0-.52c0-.13,0-.26.06-.4l0-.13,1.3-5.56h2.06l.24-1.15h-2.1Z"/><path class="cls-1" d="M140.07,91.49a1.55,1.55,0,0,1-.13.44,2.41,2.41,0,0,1-.27.53,2.07,2.07,0,0,1-.36.41.39.39,0,0,1-.25.12h0a.42.42,0,0,1-.06-.18,2.26,2.26,0,0,1,.12-.63c.09-.3.15-.51.19-.63l.9-2.92c.1-.35.18-.68.24-1a6.08,6.08,0,0,0,.09-1,2.33,2.33,0,0,0-.56-1.62,2,2,0,0,0-1.57-.63,2.9,2.9,0,0,0-1.18.25,3.73,3.73,0,0,0-1,.61,5.22,5.22,0,0,0-.48.46L137,79.84l-.51.13a9.07,9.07,0,0,1-2.21.29h-1.13l-.3,1.15h1a1.72,1.72,0,0,1,.44,0,.46.46,0,0,1,0,.21,4,4,0,0,1-.15,1L134,83.84,131.73,94.1h2.16l.75-3.36a11,11,0,0,1,.39-1.41,9.88,9.88,0,0,1,.72-1.68,5.72,5.72,0,0,1,1-1.37,1.74,1.74,0,0,1,1.27-.53.35.35,0,0,1,.28.11.45.45,0,0,1,.12.32,4.14,4.14,0,0,1-.09.76c-.07.33-.14.63-.22.9l-.74,2.39c-.12.36-.23.71-.34,1.12a3.74,3.74,0,0,0-.16,1.09,2.1,2.1,0,0,0,.43,1.35,1.61,1.61,0,0,0,1.38.6,2.11,2.11,0,0,0,1-.27,2.76,2.76,0,0,0,.77-.67,3.42,3.42,0,0,0,.5-.9,5.45,5.45,0,0,0,.27-1l.06-.37H140.1Z"/><path class="cls-1" d="M145.36,90.38a1.12,1.12,0,0,1,.11-.38h0a11.67,11.67,0,0,0,1.7-.14,7.57,7.57,0,0,0,1.83-.48,4.28,4.28,0,0,0,1.49-1,2.22,2.22,0,0,0,.64-1.6,2.37,2.37,0,0,0-.25-1.09,2.32,2.32,0,0,0-.66-.77,2.94,2.94,0,0,0-.89-.43,3.46,3.46,0,0,0-1-.15,4.61,4.61,0,0,0-2.24.54,5.28,5.28,0,0,0-1.63,1.37,6.5,6.5,0,0,0-1,1.94,7.34,7.34,0,0,0-.35,2.21,6.78,6.78,0,0,0,.17,1.51,3.55,3.55,0,0,0,.56,1.26,2.75,2.75,0,0,0,1,.86,3.36,3.36,0,0,0,1.51.32,3.43,3.43,0,0,0,1.42-.29,3.73,3.73,0,0,0,1.12-.73,4.58,4.58,0,0,0,.83-1.07,8.4,8.4,0,0,0,.54-1.25l.14-.43h-1.32l-.08.22a5.68,5.68,0,0,1-.38.86,2.88,2.88,0,0,1-.52.72,2.26,2.26,0,0,1-.68.5,1.84,1.84,0,0,1-.83.18,1.08,1.08,0,0,1-1-.45,2.37,2.37,0,0,1-.33-1.28v-.48A3.08,3.08,0,0,1,145.36,90.38Zm2.54-4.84a.9.9,0,0,1,.68.23,1.23,1.23,0,0,1,.28.74,2,2,0,0,1-.28,1,2.13,2.13,0,0,1-.72.74,3.4,3.4,0,0,1-1.05.42,4.77,4.77,0,0,1-1.15.14c.06-.25.13-.52.22-.82a6.81,6.81,0,0,1,.49-1.24,3.15,3.15,0,0,1,.68-.93A1.23,1.23,0,0,1,147.9,85.54Z"/><path class="cls-1" d="M89,159.58H86v1.22h2.79v1H86v1.48h3.18v1H84.81v-5.75H89Z"/><path class="cls-1" d="M91.72,158.56h1.19v2.37l2.22-2.37h1.55l-2.36,2.37,2.48,3.38H95.26l-1.78-2.51-.57.59v1.92H91.72Z"/><path class="cls-1" d="M100.71,158.56h1.36l2,5.75h-1.3l-.38-1.18h-2.12l-.39,1.18H98.66Zm-.07,3.58h1.47l-.73-2.26Z"/><path class="cls-1" d="M110.25,158.56H112v5.75h-1.12V160c0-.2,0-.35,0-.46l-1.09,4.82h-1.17l-1.08-4.82V160c0,.2,0,.36,0,.47v3.89h-1.12v-5.75h1.75l1,4.52Z"/><path class="cls-1" d="M116.33,158.56h1.36l2,5.75h-1.31l-.38-1.18h-2.11l-.39,1.18h-1.26Zm-.08,3.58h1.47l-.72-2.26Z"/><path class="cls-1" d="M123.15,164.31H122v-5.75h1.19Z"/><path class="cls-1" d="M129.26,161.56h2.18v1.05h-2.18Z"/><path class="cls-1" d="M141.45,158.71a1.41,1.41,0,0,1,.53.4,1.63,1.63,0,0,1,.29.49,1.57,1.57,0,0,1,.11.6,1.75,1.75,0,0,1-.21.81,1.14,1.14,0,0,1-.68.56,1,1,0,0,1,.56.45,1.91,1.91,0,0,1,.17.9v.38a3.06,3.06,0,0,0,0,.54.49.49,0,0,0,.22.33v.14h-1.32a2,2,0,0,1-.08-.31,2.63,2.63,0,0,1,0-.49V163a1.07,1.07,0,0,0-.19-.73,1,1,0,0,0-.68-.18H139v2.25h-1.17v-5.75h2.75A2.64,2.64,0,0,1,141.45,158.71Zm-2.49.85v1.55h1.3a1.35,1.35,0,0,0,.57-.1.64.64,0,0,0,.34-.65.73.73,0,0,0-.33-.7,1.12,1.12,0,0,0-.55-.1Z"/><path class="cls-1" d="M146.77,158.56h1.36l2,5.75h-1.3l-.38-1.18h-2.11l-.39,1.18h-1.26Zm-.08,3.58h1.47l-.72-2.26Z"/><path class="cls-1" d="M156.31,158.56H158v5.75h-1.12v-4.82l-1.09,4.82h-1.16l-1.08-4.82v4.82h-1.12v-5.75h1.75l1.05,4.52Z"/><path class="cls-1" d="M161.84,164.31h-1.19v-5.75h1.19Z"/><path class="cls-1" d="M164.54,158.56h1.26l2.28,4v-4h1.12v5.75H168l-2.34-4.08v4.08h-1.12Z"/><path class="cls-1" d="M176.11,158.56v1h-1.72v4.73h-1.21v-4.73h-1.73v-1Z"/><path class="cls-1" d="M182.09,158.71a1.52,1.52,0,0,1,.54.4,2.18,2.18,0,0,1,.29.49,1.57,1.57,0,0,1,.1.6,1.86,1.86,0,0,1-.2.81,1.19,1.19,0,0,1-.69.56,1,1,0,0,1,.57.45,1.93,1.93,0,0,1,.16.9v.38a3.06,3.06,0,0,0,0,.54.5.5,0,0,0,.23.33v.14h-1.33c0-.13-.06-.23-.08-.31a2.63,2.63,0,0,1-.05-.49V163a1,1,0,0,0-.19-.73,1,1,0,0,0-.68-.18h-1.17v2.25h-1.18v-5.75h2.75A2.59,2.59,0,0,1,182.09,158.71Zm-2.48.85v1.55h1.29a1.41,1.41,0,0,0,.58-.1.66.66,0,0,0,.34-.65.73.73,0,0,0-.33-.7,1.19,1.19,0,0,0-.56-.1Z"/><path class="cls-1" d="M187.41,158.56h1.36l2,5.75h-1.3l-.38-1.18H187l-.39,1.18h-1.26Zm-.07,3.58h1.47l-.73-2.26Z"/><path class="cls-1" d="M65.81,108.08v26.41a6,6,0,0,1-.47,2.34,6.47,6.47,0,0,1-1.29,2,6.09,6.09,0,0,1-1.89,1.33,5.51,5.51,0,0,1-2.3.48H56.61a5.52,5.52,0,0,1-2.32-.49,6.32,6.32,0,0,1-2-1.34,6.5,6.5,0,0,1-1.34-2,5.75,5.75,0,0,1-.48-2.33V108.08H47.24v26.44a9.08,9.08,0,0,0,.74,3.64,9.36,9.36,0,0,0,2,3,9.72,9.72,0,0,0,3,2,9.29,9.29,0,0,0,3.65.73h3.26a8.84,8.84,0,0,0,3.6-.76,9.68,9.68,0,0,0,2.93-2,9.48,9.48,0,0,0,2-3,9.31,9.31,0,0,0,.71-3.59V108.08Z"/><path class="cls-1" d="M191.76,108.08v26.41a6,6,0,0,1-.47,2.34,6.66,6.66,0,0,1-1.29,2,6.09,6.09,0,0,1-1.89,1.33,5.54,5.54,0,0,1-2.3.48h-3.25a5.6,5.6,0,0,1-2.33-.49,6.16,6.16,0,0,1-2-1.34,6.5,6.5,0,0,1-1.34-2,5.75,5.75,0,0,1-.48-2.33V108.08h-3.26v26.44a9.07,9.07,0,0,0,.73,3.64,9.39,9.39,0,0,0,2,3,9.8,9.8,0,0,0,3,2,9.38,9.38,0,0,0,3.66.73h3.26a8.84,8.84,0,0,0,3.6-.76,9.48,9.48,0,0,0,4.89-5,9.31,9.31,0,0,0,.71-3.59V108.08Z"/><rect class="cls-1" x="114.48" y="108.1" width="3.26" height="35.75"/><polygon class="cls-1" points="223.94 130.66 207.61 130.66 207.61 140.5 228.38 140.5 228.38 143.85 204.35 143.85 204.35 108.1 228.38 108.1 228.38 111.36 207.61 111.36 207.61 121.57 223.94 121.57 223.94 124.83 207.68 124.83 207.67 127.4 223.94 127.4 223.94 130.66"/><polygon class="cls-1" points="104.15 143.85 78.41 108.1 82.39 108.12 102.19 135.64 102.19 108.12 105.4 108.12 105.44 143.85 104.15 143.85"/><path class="cls-1" d="M78.42,111.85v32h3.26V121.9l15.64,21.95h3.93c-.5-.75-3.46-5-4.25-6.12l-2.75-3.89c-1-1.46-2.11-3-3.2-4.47s-2.17-3-3.25-4.54-2.07-2.9-3-4.14l-2.28-3.15Z"/><polygon class="cls-1" points="165.92 143.81 155.16 128.88 151.14 128.88 161.97 143.91 165.92 143.81"/><polygon class="cls-1" points="159.51 143.81 148.75 128.88 144.73 128.88 155.57 143.91 159.51 143.81"/><path class="cls-1" d="M165.05,121.53l-15.11-15.1a6.29,6.29,0,0,0-8.89,0L126,121.53a6.31,6.31,0,0,0,0,8.89l15.1,15.1a6.29,6.29,0,0,0,8.89,0l4.85-4.84-1.69-2.84-5.42,5.42a3.11,3.11,0,0,1-4.36,0l-15.1-15.11a3.08,3.08,0,0,1,0-4.35l15.1-15.11a3.11,3.11,0,0,1,4.36,0l15.1,15.11a3.08,3.08,0,0,1,0,4.35l-5.93,5.93,1.7,2.84,6.5-6.5A6.31,6.31,0,0,0,165.05,121.53Z"/></g></svg>