<svg xmlns="http://www.w3.org/2000/svg" xmlns:xlink="http://www.w3.org/1999/xlink" viewBox="0 0 281.01 257.94"><defs><style>.cls-1{fill:#231f20;}.cls-2{fill:#191718;}.cls-3{fill:#31302f;}.cls-4{fill:url(#White_Black);}.cls-5{fill:url(#New_Gradient_Swatch_5);}</style><linearGradient id="White_Black" x1="95.91" y1="116.25" x2="163.08" y2="57.48" gradientUnits="userSpaceOnUse"><stop offset="0" stop-color="#fff"/><stop offset="1" stop-color="#231f20"/></linearGradient><linearGradient id="New_Gradient_Swatch_5" x1="104.19" y1="129.98" x2="175.6" y2="129.98" gradientUnits="userSpaceOnUse"><stop offset="0" stop-color="#977866"/><stop offset="0.11" stop-color="#b08f7b"/><stop offset="0.37" stop-color="#e2bda6"/><stop offset="0.49" stop-color="#f6cfb7"/><stop offset="0.58" stop-color="#ecc6ae"/><stop offset="0.74" stop-color="#d0ac97"/><stop offset="0.95" stop-color="#a38370"/><stop offset="1" stop-color="#977866"/></linearGradient></defs><g id="Our_Project" data-name="Our Project"><path class="cls-1" d="M104,189.86v-32.4h7.56v32.4Zm16.67-16.2,10.24,16.2h-8.61l-9.69-15,9.69-17.42h8.07Z"/><path class="cls-1" d="M149.22,164.5h-9.16l0,4.82h4.87v7.25H140v6.08h9.2v7.25H132.94V157.25h16.28Z"/><path class="cls-1" d="M171.69,157.38h3.81v32.56H169l-10.83-15.63v7.17h-7v-24.1h6.51L169,171.88l-.55-7.25h-2.68v-7.25h5.92Z"/><path class="cls-1" d="M112.34,206.47h-1.41l-.89-1.94H104.8l-.9,1.94h-1.41l4.12-8.67h1.62Zm-2.93-3.23-2-4.2-2,4.2Z"/><path class="cls-1" d="M121.44,199.09h-3.72v7.38h-1.29v-7.38h-3.71V197.8h8.72Z"/><path class="cls-1" d="M130.59,199.09h-3.72v7.38h-1.29v-7.38h-3.71V197.8h8.72Z"/><path class="cls-1" d="M133.39,206.47H132.1V197.8h1.29Z"/><path class="cls-1" d="M143.63,199.09h-3.72v7.38h-1.29v-7.38h-3.71V197.8h8.72Z"/><path class="cls-1" d="M153.9,203.67a2.59,2.59,0,0,1-1.18,2.19,5.41,5.41,0,0,1-3.22.87,5.48,5.48,0,0,1-3.23-.87,2.59,2.59,0,0,1-1.18-2.19V197.8h1.29v5.52a1.77,1.77,0,0,0,.8,1.56,5.25,5.25,0,0,0,4.64,0,1.79,1.79,0,0,0,.79-1.56V197.8h1.29Z"/><path class="cls-1" d="M161.36,197.8a4.33,4.33,0,0,1,3.22,1.2,4.4,4.4,0,0,1,1.19,3.23,4.14,4.14,0,0,1-1.26,3.09,4,4,0,0,1-2.9,1.15h-5.17V197.8Zm.36,7.38a2.43,2.43,0,0,0,1.9-.84,3.09,3.09,0,0,0,.75-2.14,3.16,3.16,0,0,0-.8-2.25,2.77,2.77,0,0,0-2.1-.86h-3.74v6.09Z"/><path class="cls-1" d="M176,206.47h-8.14V197.8h7.84v1.29h-6.55v2.23h4.55v1.29h-4.55v2.57H176Z"/><polygon class="cls-2" points="157.28 119.53 104.19 88.37 113.49 72.37 175.6 108.78 157.28 119.53"/><polygon class="cls-3" points="122.49 119.53 175.58 88.37 166.27 72.37 104.17 108.78 122.49 119.53"/><polygon class="cls-4" points="175.6 67.16 139.91 45.96 139.89 45.97 139.88 45.96 104.19 67.16 104.19 88.37 139.89 67.4 175.6 88.37 175.6 67.16"/><polygon class="cls-5" points="175.6 129.98 139.91 151.19 139.89 151.18 139.88 151.19 104.19 129.98 104.19 108.78 139.89 129.74 175.6 108.78 175.6 129.98"/></g></svg>